<?xml version="1.0" standalone="no"?>
<!DOCTYPE svg PUBLIC "-//W3C//DTD SVG 20010904//EN"
 "http://www.w3.org/TR/2001/REC-SVG-20010904/DTD/svg10.dtd">
<svg version="1.0" xmlns="http://www.w3.org/2000/svg"
 width="1848.000000pt" height="1736.000000pt" viewBox="0 0 1848.000000 1736.000000"
 preserveAspectRatio="xMidYMid meet">

<g transform="translate(0.000000,1736.000000) scale(0.100000,-0.100000)"
fill="#000000" stroke="none">
<path d="M4400 15809 c-296 -9 -377 -19 -844 -98 -168 -29 -248 -47 -272 -61
-18 -12 -90 -34 -161 -50 -291 -65 -767 -278 -1063 -475 -345 -229 -493 -347
-709 -565 -235 -237 -428 -487 -531 -688 -21 -42 -53 -97 -69 -122 -17 -25
-45 -88 -62 -140 -17 -52 -42 -110 -56 -128 -36 -48 -50 -89 -79 -224 -14 -68
-47 -190 -74 -273 -30 -92 -53 -187 -60 -245 -18 -142 -25 -896 -10 -1135 19
-324 26 -396 45 -470 10 -38 20 -72 22 -75 10 -11 22 28 17 55 -4 21 -3 27 5
20 11 -11 31 -100 31 -137 0 -11 -5 -16 -10 -13 -6 4 -8 11 -5 16 4 5 2 17 -4
26 -14 24 -8 -21 12 -97 8 -30 20 -89 26 -130 17 -107 37 -186 76 -284 18 -46
45 -133 60 -192 15 -59 42 -143 61 -186 20 -43 55 -137 80 -209 24 -72 53
-148 64 -169 11 -21 37 -82 59 -136 51 -127 298 -637 386 -796 174 -316 301
-516 548 -867 201 -285 261 -365 421 -561 304 -370 485 -580 630 -730 516
-532 589 -604 895 -874 588 -518 875 -750 1276 -1033 94 -65 235 -166 315
-224 274 -199 589 -401 931 -599 419 -242 465 -268 579 -328 63 -33 141 -75
172 -94 235 -137 247 -141 280 -97 35 47 4 85 -84 104 -26 5 -28 9 -28 59 0
97 48 113 166 55 94 -46 144 -116 146 -204 2 -57 6 -63 27 -43 10 11 15 9 27
-6 8 -11 14 -26 14 -33 0 -8 7 -25 16 -38 19 -30 12 -110 -13 -138 -15 -16
-14 -22 10 -70 15 -29 27 -59 27 -68 0 -18 -58 -109 -70 -109 -5 0 -32 -22
-62 -48 -84 -76 -138 -93 -138 -43 0 28 -1 28 -72 34 -82 6 -92 2 -172 -69
-25 -23 -46 -50 -46 -61 0 -29 49 -68 110 -88 58 -19 110 -64 110 -96 0 -10
-16 -29 -35 -42 -68 -46 -118 -160 -76 -175 10 -3 12 0 8 12 -9 22 -2 20 27
-9 21 -20 35 -25 79 -25 71 0 127 29 257 136 58 47 110 88 115 90 12 5 278
-145 344 -194 l44 -32 221 2 c122 2 236 -1 254 -6 29 -7 38 -18 78 -99 24 -51
58 -114 74 -142 16 -27 30 -63 30 -78 0 -45 29 -94 74 -129 22 -17 72 -58 109
-91 l68 -59 192 4 c226 5 279 18 325 77 41 52 57 86 87 178 29 91 48 113 154
177 44 27 79 40 129 47 37 5 75 12 85 15 21 7 47 54 47 87 0 25 -53 107 -69
107 -19 0 -20 34 -2 73 20 44 54 87 159 206 34 40 62 77 62 84 0 6 -10 27 -21
46 -35 58 -18 88 126 231 69 69 125 132 125 142 0 10 7 18 15 18 23 0 18 17
-7 24 l-23 6 27 20 c25 20 26 23 21 99 -7 105 -1 129 42 147 64 26 89 20 129
-36 39 -55 63 -70 76 -50 14 23 20 86 10 119 -11 39 -3 57 51 119 47 54 99 93
219 164 52 31 121 81 153 111 51 47 71 58 145 81 48 14 101 26 119 26 18 0 73
13 123 29 50 17 139 40 197 51 59 12 170 44 247 70 78 26 179 56 226 66 47 9
128 33 180 51 52 19 136 43 187 54 50 11 138 35 195 55 56 19 159 48 228 63
127 29 355 113 484 178 145 73 354 221 637 450 333 268 468 383 560 473 85 83
102 106 137 183 23 48 49 100 60 115 31 44 60 135 71 219 11 86 25 133 40 133
5 0 22 -5 37 -10 36 -14 41 -6 18 35 -24 46 -16 53 86 69 105 17 121 32 126
115 3 48 -1 68 -16 94 -35 57 -25 126 30 215 17 26 16 27 -144 157 -47 39
-107 97 -133 130 -84 106 -115 135 -184 176 -38 22 -75 49 -84 62 -14 20 -14
23 1 34 30 22 98 26 132 9 17 -9 43 -16 57 -16 15 0 56 -12 92 -26 85 -34 161
-54 179 -47 8 3 14 18 14 33 0 31 1 30 -150 81 -36 12 -69 25 -75 29 -5 5 -37
23 -70 41 -57 32 -66 34 -200 40 -77 3 -151 9 -163 12 -37 10 -190 111 -367
244 -176 132 -257 163 -438 165 l-113 2 -79 -68 c-44 -37 -107 -81 -139 -98
-56 -28 -66 -30 -140 -26 -58 4 -100 13 -148 33 l-67 28 -21 -26 c-19 -24 -28
-27 -86 -27 -100 0 -255 28 -284 50 -71 56 -63 54 -277 62 -235 9 -300 22
-388 78 -109 71 -106 67 -115 153 -10 109 -35 132 -167 162 -54 12 -77 23
-102 49 -31 32 -32 34 -21 81 15 66 9 80 -27 62 -16 -8 -44 -18 -63 -22 -19
-4 -54 -16 -78 -27 -35 -17 -49 -18 -80 -10 -64 18 -330 120 -512 197 -96 41
-218 91 -270 111 -52 20 -178 81 -280 135 -102 54 -222 109 -266 123 -55 18
-89 35 -109 57 -43 44 -131 85 -150 69 -26 -21 -85 -127 -85 -151 -1 -58 -65
-97 -198 -119 -164 -28 -193 -37 -218 -63 -40 -44 -82 -50 -263 -43 l-166 7
-47 -44 c-53 -51 -121 -72 -263 -83 -109 -8 -147 -18 -238 -65 -46 -23 -121
-50 -180 -64 -246 -58 -276 -70 -277 -116 0 -32 50 -109 93 -142 21 -16 41
-46 56 -85 23 -59 23 -64 12 -174 -15 -139 -40 -237 -86 -331 -33 -68 -40 -76
-140 -146 -58 -41 -141 -95 -185 -121 -184 -110 -312 -218 -356 -300 l-31 -58
32 -15 c37 -18 66 -71 73 -135 5 -42 3 -45 -49 -95 -71 -68 -86 -93 -105 -174
-8 -37 -20 -75 -25 -85 -26 -49 -109 -60 -326 -44 l-122 9 -35 -35 c-56 -56
-72 -148 -37 -216 10 -21 47 -59 80 -86 60 -48 117 -125 121 -162 5 -46 -3
-64 -58 -120 -32 -32 -70 -76 -85 -96 l-28 -38 42 -52 c22 -29 59 -89 81 -133
21 -44 45 -87 52 -95 36 -41 50 -86 51 -165 0 -73 -3 -84 -30 -125 -38 -57
-109 -94 -207 -110 -95 -15 -151 -38 -142 -59 4 -9 9 -25 11 -36 5 -22 69 -73
139 -110 39 -21 61 -25 130 -25 115 0 177 -25 264 -104 64 -59 326 -240 383
-264 63 -27 139 -3 222 70 92 81 223 223 244 265 23 46 60 77 86 71 31 -6 55
-118 26 -118 -5 0 -29 -16 -55 -36 -44 -34 -46 -37 -40 -72 9 -51 26 -62 88
-55 64 7 114 36 122 71 3 15 16 52 29 82 27 61 25 78 -15 188 -21 59 -22 68
-12 145 15 105 36 127 118 127 l55 0 -3 -213 c-3 -238 2 -263 58 -298 44 -27
74 -66 74 -96 0 -27 -18 -56 -84 -133 -29 -34 -45 -63 -48 -88 -3 -20 -28 -84
-55 -142 -28 -58 -60 -134 -73 -170 -12 -36 -28 -76 -36 -90 -19 -37 -71 -90
-88 -90 -8 0 -26 -15 -41 -32 -82 -103 -115 -116 -295 -120 -117 -3 -128 -1
-167 21 -24 14 -63 51 -88 83 -25 31 -51 63 -58 70 -23 25 -64 83 -81 115 -21
41 -22 189 -1 257 13 43 13 52 0 72 -20 31 -90 85 -155 119 -30 16 -110 64
-178 108 -132 84 -198 117 -276 136 -63 15 -175 72 -254 129 -48 34 -70 58
-92 101 -38 74 -65 99 -390 360 -268 215 -848 731 -1010 897 -397 410 -737
821 -1041 1259 -108 155 -335 528 -396 649 -25 49 -55 105 -68 125 -43 66
-212 433 -278 606 -84 220 -195 540 -202 585 -12 71 -48 196 -71 248 -33 75
-42 150 -42 342 l1 164 19 -49 c11 -28 27 -77 34 -110 20 -85 43 -154 55 -165
3 -3 16 -36 28 -75 13 -38 39 -100 57 -136 19 -37 34 -71 34 -76 0 -25 77
-238 111 -306 22 -43 49 -101 60 -130 31 -80 192 -395 286 -562 47 -82 97
-170 110 -195 68 -119 308 -481 409 -615 506 -667 844 -1037 1509 -1651 308
-284 423 -386 530 -474 44 -36 132 -107 195 -159 234 -190 344 -261 406 -261
16 0 24 4 18 8 -6 4 -10 14 -9 22 1 8 -1 43 -6 78 -9 62 -21 94 -71 182 -14
25 -31 65 -38 89 -10 39 -64 96 -499 530 -322 321 -525 531 -597 619 -60 74
-129 157 -152 185 -209 248 -500 696 -714 1097 -25 47 -55 101 -66 120 -11 19
-37 77 -57 129 -21 52 -51 116 -67 142 -16 26 -44 92 -62 146 -38 110 -62 172
-99 254 -15 31 -40 109 -57 175 -17 65 -44 146 -61 178 -16 33 -29 70 -29 83
0 12 -4 23 -9 23 -10 0 -18 41 -65 340 -56 349 -61 409 -60 650 2 260 10 339
65 614 43 214 70 319 99 376 10 19 34 82 55 140 20 58 47 125 59 150 201 408
313 567 636 903 143 149 275 264 410 358 211 148 383 255 489 306 64 30 170
81 236 113 66 32 150 65 188 74 80 19 254 87 316 123 39 23 287 226 492 403
41 36 142 121 224 190 82 69 198 167 259 219 60 51 132 111 160 133 28 23 79
66 113 98 83 76 161 116 241 123 63 5 91 -1 237 -56 35 -13 44 -13 74 -1 62
26 193 108 240 150 75 68 144 79 235 39 60 -26 116 -33 116 -13 0 6 52 64 116
129 75 75 115 123 111 132 -7 18 11 37 36 37 54 0 -9 30 -179 85 -104 35 -205
72 -224 83 -19 11 -82 34 -140 50 -58 17 -143 46 -190 64 -47 19 -114 42 -150
52 -36 10 -117 35 -180 56 -63 21 -200 62 -305 90 -104 28 -192 53 -195 55 -4
2 -78 20 -166 39 -87 20 -202 47 -254 61 -415 113 -1319 261 -1740 285 -191
11 -691 11 -1030 -1z m10505 -8437 c19 -14 15 -32 -8 -32 -16 0 -23 6 -24 20
-2 20 13 26 32 12z m-4011 -1125 c13 -10 18 -33 23 -105 l6 -92 32 0 c18 0 52
7 75 15 82 29 157 13 218 -45 40 -38 52 -71 52 -137 0 -64 -129 -221 -221
-268 -65 -34 -179 -43 -247 -21 -28 10 -55 23 -61 30 -16 19 -151 40 -204 32
-25 -4 -61 -18 -80 -31 -53 -35 -77 -41 -77 -16 0 24 -22 29 -180 45 -79 8
-132 9 -170 2 -30 -5 -77 -10 -105 -10 -44 -1 -50 2 -53 21 -4 27 18 72 69
140 21 29 48 76 59 106 22 59 52 91 152 160 63 45 73 48 174 62 113 16 193 33
209 45 6 4 32 10 58 14 27 3 63 16 79 28 49 35 159 49 192 25z m-3656 -3451
c-10 -7 -18 -26 -18 -43 0 -32 -8 -46 -22 -37 -5 3 -3 13 4 22 10 12 10 14 0
8 -7 -4 -15 -1 -18 8 -7 18 31 55 56 55 12 0 12 -2 -2 -13z"/>
<path d="M11595 15035 c-102 -73 -322 -255 -491 -405 -28 -25 -97 -83 -154
-130 -57 -47 -141 -120 -187 -162 -46 -43 -96 -84 -113 -93 -38 -19 -58 -54
-39 -66 8 -5 17 -9 21 -9 24 0 174 -118 272 -213 127 -124 141 -150 132 -249
-12 -125 -27 -158 -71 -158 -12 0 -48 -28 -85 -66 -95 -96 -170 -149 -247
-174 -81 -26 -116 -44 -165 -82 -43 -34 -46 -43 -18 -51 17 -4 20 -13 20 -64
-1 -32 -6 -68 -13 -80 -34 -61 -329 -335 -457 -424 -41 -29 -88 -63 -104 -76
-16 -13 -35 -22 -42 -19 -8 3 -14 2 -14 -2 -5 -98 -10 -124 -33 -172 -29 -60
-115 -154 -247 -270 -47 -41 -87 -77 -90 -80 -18 -19 -151 -111 -172 -119 -29
-11 -229 -18 -245 -8 -12 8 -24 -5 -78 -87 -54 -81 -193 -217 -276 -271 -162
-105 -250 -126 -355 -83 -91 37 -282 180 -534 399 -80 69 -240 207 -356 305
-347 295 -421 363 -461 422 -37 55 -38 60 -38 147 0 74 4 97 22 132 40 75 130
160 262 247 107 72 201 151 201 171 0 3 -6 5 -14 5 -17 0 -20 7 -36 91 -13 63
-12 68 9 97 68 97 339 332 514 448 86 56 97 67 97 93 0 37 35 150 54 176 9 11
16 30 16 42 0 22 -36 92 -53 104 -10 7 -107 -20 -147 -41 -23 -12 -127 -93
-175 -137 -42 -38 -161 -140 -191 -164 -17 -13 -83 -69 -145 -124 -63 -55
-152 -132 -199 -170 -93 -76 -263 -222 -379 -325 -95 -84 -207 -220 -222 -269
-9 -29 -9 -121 0 -372 6 -184 11 -747 11 -1251 0 -510 4 -927 9 -940 12 -33
157 -187 281 -299 58 -52 215 -185 349 -295 319 -259 340 -279 352 -329 5 -22
9 -155 10 -295 0 -140 4 -246 9 -235 12 33 23 -167 17 -315 -3 -74 -13 -155
-20 -180 -8 -25 -17 -91 -20 -146 -6 -116 1 -124 63 -66 42 39 144 92 177 92
13 0 50 11 83 25 32 14 94 34 137 46 81 22 143 49 228 99 60 35 115 48 255 61
120 12 165 28 181 63 7 14 21 29 33 33 12 5 102 7 201 6 103 -2 193 2 211 7
17 6 50 30 72 54 40 43 40 43 129 49 135 10 157 19 172 70 20 67 71 127 150
178 37 24 56 29 103 29 64 0 94 -12 172 -67 26 -19 89 -50 140 -69 50 -19 182
-82 294 -140 210 -109 326 -159 349 -150 10 4 13 73 13 368 0 375 7 465 38
508 10 14 101 94 203 178 101 85 269 226 373 315 183 156 479 408 581 494 28
23 259 220 515 439 580 495 568 484 741 629 79 66 163 140 187 165 l43 44 -2
473 c-1 260 -6 478 -9 484 -15 24 -133 -59 -220 -155 -19 -22 -76 -72 -125
-111 -50 -40 -122 -101 -161 -136 -70 -64 -201 -176 -349 -299 -42 -36 -100
-84 -128 -107 -79 -67 -151 -58 -164 20 -5 35 -3 40 48 90 30 28 112 99 184
157 71 58 172 143 225 190 53 47 110 96 126 110 30 27 369 307 441 366 48 39
48 46 -5 114 -39 51 -65 75 -138 130 -28 21 -121 106 -207 190 l-157 151 -32
-17 c-18 -9 -66 -46 -107 -83 -40 -36 -110 -97 -155 -135 -44 -38 -83 -72 -86
-75 -3 -4 -43 -40 -90 -81 -47 -40 -87 -76 -90 -79 -3 -3 -23 -21 -45 -40 -22
-18 -62 -55 -90 -80 -27 -26 -77 -68 -110 -93 -33 -26 -76 -62 -96 -80 -19
-18 -62 -55 -95 -83 -32 -27 -99 -87 -147 -132 -88 -82 -89 -83 -142 -83 -30
0 -65 4 -79 10 -48 18 -27 84 49 155 172 159 518 457 627 537 20 15 42 33 50
40 34 32 161 140 238 203 91 74 171 146 232 209 40 40 47 71 27 109 -7 11 -13
60 -15 108 -2 73 1 92 15 111 10 13 30 56 45 96 38 106 51 128 118 192 38 37
59 64 56 76 -1 10 -25 31 -53 47 -27 16 -70 48 -97 72 -86 78 -137 90 -232 56
-79 -28 -241 -151 -416 -317 -36 -34 -95 -85 -131 -115 -166 -137 -428 -358
-494 -418 -101 -92 -366 -306 -438 -356 l-86 -58 -38 16 c-36 14 -40 14 -50
-1 -6 -10 -14 -14 -18 -10 -4 4 8 33 26 65 25 40 68 86 149 155 63 54 173 149
243 211 70 62 192 168 270 236 78 68 207 181 287 251 80 70 186 161 235 203
50 41 112 97 138 124 46 48 48 53 53 117 5 59 2 72 -20 111 -60 102 -384 361
-466 372 -31 4 -46 -2 -115 -52z"/>
<path d="M9416 14865 c-32 -13 -68 -32 -80 -42 -11 -10 -44 -39 -72 -63 -28
-25 -78 -69 -112 -98 -34 -29 -69 -66 -77 -83 -14 -26 -14 -33 0 -65 8 -20 39
-65 67 -101 50 -61 99 -106 358 -323 62 -52 192 -162 288 -245 467 -399 497
-422 571 -447 38 -13 49 -13 104 2 88 24 118 41 247 146 196 159 216 184 173
216 -10 7 -35 34 -56 61 -77 95 -299 301 -572 532 -65 55 -155 132 -199 170
-45 39 -110 95 -146 125 -36 30 -67 57 -70 60 -23 27 -182 147 -215 161 -57
26 -137 24 -209 -6z"/>
<path d="M8580 14444 c-30 -26 -86 -71 -125 -99 -73 -55 -162 -139 -200 -190
-25 -34 -67 -163 -55 -170 4 -2 10 -18 13 -33 9 -46 45 -81 296 -294 130 -110
355 -302 500 -426 424 -364 615 -521 631 -522 9 0 21 -5 28 -12 6 -6 45 -13
84 -15 87 -3 125 14 251 110 77 59 280 239 322 286 l19 22 -39 39 c-22 21 -58
62 -80 90 -45 59 -152 157 -335 310 -69 57 -141 117 -160 134 -20 17 -60 51
-90 76 -30 25 -119 101 -199 170 -213 183 -324 276 -431 362 -52 42 -113 93
-135 113 -64 58 -115 83 -180 90 l-60 7 -55 -48z"/>
<path d="M13075 14362 c-16 -10 -48 -41 -69 -68 -22 -27 -60 -71 -84 -97 -63
-69 -78 -113 -92 -261 -14 -150 -7 -241 23 -294 12 -22 60 -73 107 -113 47
-41 139 -122 205 -180 66 -57 145 -124 175 -149 30 -24 78 -65 105 -90 28 -26
66 -56 86 -68 49 -29 94 -81 110 -128 17 -49 18 -745 1 -895 -15 -140 -27
-158 -200 -301 -81 -67 -192 -163 -248 -213 -120 -108 -337 -296 -484 -420
-346 -291 -538 -455 -862 -734 -117 -100 -280 -240 -362 -310 -375 -317 -488
-418 -539 -480 l-28 -34 4 -431 c5 -534 -5 -503 170 -546 77 -19 111 -21 261
-19 195 4 176 9 298 -87 68 -55 100 -92 117 -137 10 -26 11 -26 43 -10 30 15
37 15 98 -1 40 -10 71 -25 81 -38 19 -25 35 -90 49 -203 6 -44 14 -83 19 -88
5 -5 116 -13 248 -17 261 -8 291 -14 393 -76 30 -18 71 -36 91 -39 50 -9 157
20 189 50 34 32 57 31 106 -4 51 -37 125 -61 188 -61 57 0 74 11 126 80 79
104 113 118 294 119 61 1 111 3 112 4 1 1 6 367 12 812 6 494 14 823 21 843
14 47 133 155 401 363 47 37 130 107 185 155 55 49 129 112 164 139 151 118
188 155 243 235 l56 83 0 146 c0 80 0 525 1 989 1 463 0 846 -3 851 -8 12 -8
285 0 397 l7 100 -54 47 c-30 25 -146 114 -259 197 -272 199 -475 354 -694
529 -359 284 -512 398 -605 448 -57 30 -161 32 -206 5z"/>
<path d="M8025 13788 c-51 -26 -156 -105 -265 -200 -47 -40 -105 -89 -129
-108 -23 -19 -54 -50 -67 -68 -29 -37 -38 -96 -18 -113 8 -6 14 -8 15 -3 0 5
3 2 7 -6 13 -28 240 -227 787 -690 62 -52 146 -124 186 -159 41 -35 132 -114
203 -175 72 -61 157 -135 190 -165 84 -74 151 -104 235 -104 36 0 82 7 101 15
61 26 320 259 360 322 33 55 35 97 6 153 -38 75 -60 97 -299 302 -122 104
-265 226 -317 271 -52 45 -162 139 -244 208 -82 70 -172 147 -201 172 -105 92
-379 316 -419 342 -49 33 -77 34 -131 6z"/>
<path d="M7454 13054 c-60 -32 -94 -57 -203 -152 -94 -82 -138 -133 -147 -169
-16 -61 71 -162 306 -358 52 -44 174 -147 270 -230 586 -505 693 -585 779
-585 65 0 177 79 337 238 95 94 97 104 45 195 -26 44 -64 83 -160 165 -70 59
-235 199 -367 312 -131 113 -266 228 -300 255 -33 28 -117 99 -186 158 -148
127 -194 161 -244 182 -51 21 -73 19 -130 -11z"/>
<path d="M6318 12476 c-152 -54 -547 -356 -819 -626 -130 -129 -203 -219 -304
-375 -32 -49 -78 -119 -101 -155 -24 -36 -62 -108 -84 -160 -23 -52 -47 -108
-55 -125 -31 -69 -45 -108 -40 -113 3 -3 0 -11 -6 -19 -6 -7 -8 -13 -3 -13 5
0 4 -4 -2 -8 -6 -4 -15 -17 -19 -30 -5 -18 -3 -25 13 -29 13 -3 18 -11 15 -23
-6 -22 22 -107 41 -126 21 -21 35 -17 66 16 25 26 35 30 84 30 49 0 56 2 56
20 0 18 7 20 60 20 53 0 60 -2 60 -20 0 -13 7 -20 20 -20 13 0 20 7 20 20 0
19 7 20 260 20 253 0 260 -1 260 -20 0 -18 7 -20 80 -20 l80 0 0 40 0 40 40 0
40 0 0 -60 c0 -53 2 -60 20 -60 13 0 20 7 20 20 0 13 7 20 20 20 13 0 20 7 20
20 0 17 7 20 40 20 33 0 40 -3 40 -20 0 -11 6 -20 14 -20 9 0 17 -15 21 -40 5
-29 12 -40 25 -40 14 0 19 -10 24 -42 10 -82 18 -118 27 -124 5 -3 9 6 9 20 0
14 5 26 10 26 6 0 10 -12 10 -26 0 -14 4 -23 10 -19 9 5 15 -15 11 -37 0 -4 8
-12 19 -18 22 -12 24 -8 11 18 -37 73 -36 44 -35 1064 l2 988 -22 0 c-11 -1
-37 -7 -58 -14z"/>
<path d="M14913 12190 c0 -30 2 -43 4 -27 2 15 2 39 0 55 -2 15 -4 2 -4 -28z"/>
<path d="M14913 11885 c0 -22 2 -30 4 -17 2 12 2 30 0 40 -3 9 -5 -1 -4 -23z"/>
<path d="M14914 11740 c0 -58 1 -81 3 -52 2 28 2 76 0 105 -2 28 -3 5 -3 -53z"/>
<path d="M14752 10306 c-67 -57 -133 -113 -147 -124 -14 -11 -25 -23 -25 -27
0 -3 73 -106 163 -228 252 -342 448 -660 617 -997 39 -79 85 -162 102 -183 24
-30 31 -50 34 -90 4 -76 17 -110 51 -132 47 -31 75 -89 85 -180 23 -185 21
-180 46 -183 13 -2 27 -13 32 -25 10 -27 54 -231 76 -352 8 -49 28 -140 44
-202 69 -265 102 -692 82 -1035 -14 -225 -43 -433 -76 -550 -13 -46 -35 -126
-49 -178 -14 -52 -43 -133 -65 -180 -22 -47 -56 -122 -76 -168 -20 -45 -66
-135 -102 -200 -184 -323 -350 -524 -659 -797 -315 -278 -495 -405 -776 -548
-236 -120 -331 -162 -410 -182 -108 -27 -133 -36 -169 -60 -24 -17 -77 -31
-175 -49 -77 -14 -211 -44 -298 -65 -183 -46 -249 -54 -632 -78 -300 -19 -697
-20 -849 -3 -48 6 -190 15 -315 20 -124 5 -240 14 -258 19 -51 15 -66 5 -113
-75 -25 -42 -51 -79 -60 -84 -8 -4 -44 -31 -80 -60 -36 -29 -75 -56 -87 -61
-34 -13 -56 -55 -58 -112 -1 -28 -7 -53 -13 -55 -7 -2 -12 2 -12 10 0 9 -3 9
-8 2 -4 -6 -14 -15 -23 -20 -25 -14 -155 -139 -173 -166 -8 -13 -19 -48 -25
-78 -28 -143 -31 -151 -58 -175 -16 -13 -35 -27 -43 -30 -22 -8 -58 -68 -69
-114 -7 -32 -5 -46 9 -69 41 -67 92 -83 375 -117 72 -9 211 -31 310 -50 218
-41 365 -61 550 -75 77 -6 178 -15 225 -20 426 -47 1017 -45 1540 5 355 34
343 32 700 114 97 21 225 57 285 79 61 22 136 48 168 57 110 31 455 188 652
297 282 157 580 385 859 657 169 167 254 264 382 441 155 214 290 449 352 610
12 30 46 118 76 195 35 89 64 187 81 270 14 72 34 157 45 190 43 143 87 351
75 363 -2 2 -6 -7 -10 -22 -3 -14 -7 -37 -10 -51 -3 -14 -9 -23 -14 -21 -5 3
-11 -13 -14 -36 -3 -22 -11 -44 -17 -48 -6 -4 -12 -11 -12 -16 0 -5 -2 -13 -4
-19 -1 -5 -10 -36 -19 -69 -28 -99 -28 -54 0 60 15 60 35 145 45 189 10 44 25
93 33 108 l14 28 8 -23 c21 -60 31 546 13 772 -11 138 -13 147 -33 130 -12
-10 -16 -9 -20 1 -5 15 -22 133 -31 219 -4 30 -10 57 -14 60 -4 3 -11 50 -15
105 -4 55 -15 136 -25 180 -10 44 -22 104 -26 134 -5 41 -11 55 -25 58 -10 3
-19 13 -20 22 -5 68 -8 86 -18 89 -6 2 -11 14 -11 27 0 49 -52 242 -96 351
-24 62 -56 153 -70 201 -41 142 -196 470 -421 888 -205 381 -659 1044 -920
1343 -43 49 -106 123 -141 164 -34 41 -75 86 -90 101 l-29 28 -121 -105z m878
-6840 c0 -4 -119 -88 -145 -102 -11 -5 -33 -18 -50 -29 l-30 -18 30 26 c17 14
41 32 55 39 14 7 27 16 30 19 5 7 102 69 107 69 2 0 3 -2 3 -4z"/>
<path d="M6444 10385 c1 -8 9 -22 18 -32 8 -10 18 -25 21 -33 5 -13 6 -13 6 1
1 9 -8 24 -18 33 -11 10 -17 24 -14 32 3 8 1 14 -5 14 -6 0 -9 -7 -8 -15z"/>
<path d="M2932 9545 c0 -16 2 -22 5 -12 2 9 2 23 0 30 -3 6 -5 -1 -5 -18z"/>
<path d="M7556 8142 c-3 -26 -8 -194 -11 -374 l-6 -328 21 0 c42 0 94 80 59
92 -7 2 -7 12 0 31 6 16 11 39 11 53 0 13 4 24 9 24 5 0 7 9 4 20 -3 11 -1 20
5 20 19 0 23 32 6 45 -23 16 -11 45 18 45 17 0 27 -9 35 -30 15 -41 43 -31 43
16 0 19 0 37 0 42 0 4 -13 7 -29 7 -38 0 -44 7 -36 44 8 38 18 39 33 6 15 -32
32 -32 32 -1 0 35 -10 56 -26 56 -19 0 -18 19 2 41 14 16 12 21 -31 69 -49 55
-65 86 -65 125 0 26 -3 29 -42 39 -25 6 -26 4 -32 -42z"/>
<path d="M13636 7975 c-3 -8 -2 -15 3 -15 5 0 14 7 21 15 10 12 10 15 -3 15
-8 0 -17 -7 -21 -15z"/>
<path d="M16830 6464 c0 -8 5 -12 10 -9 6 3 10 10 10 16 0 5 -4 9 -10 9 -5 0
-10 -7 -10 -16z"/>
<path d="M7760 4361 c-65 -14 -98 -39 -144 -111 -58 -89 -72 -138 -55 -199 15
-57 42 -80 92 -81 55 0 99 46 117 120 7 30 18 65 26 77 14 23 73 44 174 63 30
6 61 14 69 19 46 29 -80 108 -184 115 -33 3 -76 1 -95 -3z"/>
</g>
</svg>
