<?xml version="1.0" encoding="UTF-8"?>
<!-- Generator: Adobe Illustrator 27.4.0, SVG Export Plug-In . SVG Version: 6.00 Build 0)  -->
<svg xmlns="http://www.w3.org/2000/svg" xmlns:xlink="http://www.w3.org/1999/xlink" version="1.1" id="Capa_1" x="0px" y="0px" viewBox="0 0 500 500" style="enable-background:new 0 0 500 500;" xml:space="preserve">
<style type="text/css">
	.st0{fill:#45AA4B;}
	.st1{fill:#1E1F1C;}
	.st2{fill:#FAD300;}
	.st3{fill:#2257A0;}
	.st4{fill:#D62F24;}
	.st5{fill:#E22D1D;}
	.st6{fill:#4EAB48;}
	.st7{fill:#E52F1F;}
	.st8{fill:#46AA48;}
	.st9{fill:#C33225;}
	.st10{fill:#A01700;}
	.st11{fill:#FFFFFF;}
</style>
<g>
	<g>
		<path class="st0" d="M386.8,94.1c-37-37.9-86.3-58.7-138.6-58.7c-52.4,0-101.6,20.9-138.6,58.7c-37,37.9-57.4,88.2-57.4,141.8    c0,53.5,20.4,103.9,57.4,141.8c37,37.9,86.2,58.7,138.6,58.7c52.4,0,101.6-20.9,138.6-58.7c37-37.9,57.4-88.2,57.4-141.8    C444.2,182.3,423.8,132,386.8,94.1 M248.2,430c-1.3,0-2.7,0-4-0.1c-5.5-6.6-10.9-25.9-15-54.5c-0.1-0.4-0.1-0.8-0.2-1.1    c6.4,0.4,12.8,0.7,19.3,0.7c6.5,0,13-0.2,19.3-0.7c0,0.4-0.1,0.7-0.1,1.1c-4.1,28.6-9.5,47.9-15,54.5C251,430,249.6,430,248.2,430     M234.7,429.5c-17.3-7.6-32.6-29.5-44-60.7c11.7,2.6,23.8,4.4,36.3,5.3c0.1,0.5,0.2,1,0.2,1.5c3,20.7,7.7,44.5,14.5,54.2    C239.4,429.8,237.1,429.7,234.7,429.5 M248.2,41.8c1.4,0,2.8,0,4.2,0.1c5.5,6.6,11,25.9,15.1,54.6c0.1,0.4,0.1,0.8,0.1,1.1    c-6.4-0.5-12.8-0.7-19.3-0.7c-6.5,0-13,0.2-19.3,0.7c0.1-0.4,0.1-0.8,0.2-1.1c4.1-28.7,9.5-48.1,15.1-54.6    C245.5,41.8,246.8,41.8,248.2,41.8 M261.6,42.3c17.3,7.6,32.7,29.5,44.1,60.8c-11.7-2.6-23.8-4.4-36.3-5.3c0-0.5-0.1-1-0.2-1.5    c-3-20.8-7.7-44.6-14.6-54.3C257,42,259.3,42.1,261.6,42.3 M437.9,235.9c0,1.7,0,3.5-0.1,5.2c-7.5,5.3-25.9,10.4-52.4,14.3    l-1.1,0.2c0.4-6.5,0.6-13,0.6-19.7c0-6.6-0.2-13.2-0.6-19.7l1.1,0.2c26.5,4,45,9.1,52.4,14.4C437.9,232.5,437.9,234.2,437.9,235.9     M437.7,228.6c-9-5.7-28.3-10.5-53.6-14.2c-1-12.7-2.7-25.1-5.3-36.9c28.9,10.9,49.7,25.4,58.3,41.8    C437.4,222.3,437.6,225.4,437.7,228.6 M327.5,210.5c20.1,1.3,38.7,3.2,55,5.5c0.4,6.6,0.7,13.2,0.7,19.9c0,6.7-0.3,13.4-0.7,19.9    c-16.3,2.3-34.9,4.2-55,5.5c0.4-8.4,0.7-16.9,0.7-25.4S327.9,218.9,327.5,210.5 M382.3,214.1c-16.3-2.3-35-4.1-54.9-5.4    c-0.9-15.9-2.5-31.4-4.8-46.1c20,3.5,38.4,8.2,54.3,14.1C379.5,188.7,381.3,201.2,382.3,214.1 M277.3,208.3    c16.8,0.4,33,1.1,48.4,2.1c0.4,8.4,0.7,16.9,0.7,25.6c0,8.7-0.2,17.2-0.7,25.6c-15.4,1-31.7,1.7-48.4,2.1    c0.2-9.2,0.3-18.4,0.3-27.6C277.5,226.6,277.4,217.4,277.3,208.3 M325.6,208.6c-15.5-1-31.8-1.7-48.4-2.1c-0.4-17.1-1-33.6-2-49.2    c15.8,0.9,31.1,2.6,45.4,5C323,176.9,324.7,192.4,325.6,208.6 M248.3,315.4c-8.5,0-16.9-0.2-25.1-0.7c-1-15.7-1.7-32.2-2-49.3    c9,0.2,18.1,0.3,27.2,0.3c9.2,0,18.2-0.1,27.1-0.3c-0.4,17.1-1,33.6-2,49.3C265.2,315.1,256.8,315.4,248.3,315.4 M273.3,316.5    c-1.3,20.4-3.1,39.3-5.4,55.9c-6.4,0.5-13,0.7-19.6,0.7c-6.6,0-13.2-0.2-19.6-0.7c-2.3-16.6-4.1-35.5-5.4-55.9    c8.2,0.4,16.6,0.7,25,0.7C256.7,317.2,265,317,273.3,316.5 M248.3,263.9c-9.2,0-18.3-0.1-27.2-0.3c-0.2-9.1-0.3-18.3-0.3-27.7    c0-9.3,0.1-18.6,0.3-27.7c9-0.2,18-0.3,27.2-0.3c9.2,0,18.3,0.1,27.2,0.3c0.2,9.1,0.3,18.3,0.3,27.7c0,9.3-0.1,18.6-0.3,27.7    C266.5,263.8,257.5,263.9,248.3,263.9 M248.3,156.5c8.5,0,16.9,0.2,25.1,0.7c1,15.7,1.7,32.2,2,49.3c-9-0.2-18.1-0.3-27.1-0.3    c-9.2,0-18.2,0.1-27.2,0.3c0.4-17.1,1.1-33.6,2-49.3C231.4,156.7,239.7,156.5,248.3,156.5 M223.2,155.3    c1.3-20.4,3.1-39.3,5.4-55.9c6.4-0.5,13-0.7,19.6-0.7c6.6,0,13.1,0.2,19.6,0.7c2.3,16.6,4.1,35.5,5.4,55.9    c-8.2-0.4-16.6-0.7-25-0.7C239.8,154.7,231.5,154.9,223.2,155.3 M275.1,155.4c-1.3-20.4-3.1-39.3-5.4-55.9c12.7,1,25,2.9,36.8,5.5    c5.8,16.2,10.5,34.9,13.9,55.3C305.9,158,290.7,156.3,275.1,155.4 M241.9,41.9c-6,8.5-11,28.8-14.8,55.8    c-12.5,1-24.6,2.8-36.3,5.3c11.4-31.3,26.9-53.2,44.2-60.8C237.2,42.1,239.5,42,241.9,41.9 M226.8,99.5c-2.3,16.6-4,35.6-5.3,55.9    c-15.7,0.9-30.8,2.6-45.3,5c3.4-20.4,8.1-39,13.9-55.3C201.9,102.4,214.2,100.5,226.8,99.5 M221.4,157.3c-1,15.8-1.7,32.4-2,49.2    c-16.8,0.4-33,1.1-48.4,2.1c0.9-16.1,2.6-31.6,4.9-46.2C190.2,159.9,205.5,158.2,221.4,157.3 M219.3,263.6    c-16.8-0.4-33.1-1.1-48.4-2.1c-0.4-8.4-0.7-16.9-0.7-25.6c0-8.7,0.2-17.2,0.7-25.6c15.4-1,31.7-1.7,48.4-2.1    c-0.2,9.2-0.3,18.4-0.3,27.6C219,245.3,219.1,254.5,219.3,263.6 M169.1,208.6c-20.1,1.3-38.6,3.2-54.9,5.5    c1-12.9,2.8-25.4,5.4-37.4c16-5.9,34.3-10.7,54.4-14.1C171.6,177.3,170,192.7,169.1,208.6 M169,261.4c-20.1-1.3-38.7-3.2-55-5.5    c-0.4-6.6-0.7-13.2-0.7-19.9c0-6.7,0.2-13.4,0.7-19.9c16.3-2.3,34.9-4.2,55-5.5c-0.4,8.4-0.6,16.9-0.6,25.5S168.6,253,169,261.4     M112.4,214.4c-0.5,0.1-1,0.1-1.5,0.2c-19.7,2.9-42.2,7.5-52.3,14c0.2-3,0.3-6,0.6-9.1c8.4-16.5,29.3-31.1,58.5-42.2    C115.1,189.3,113.3,201.7,112.4,214.4 M112.2,255.6c-0.4-0.1-0.7-0.1-1.1-0.2c-26.8-4-45.3-9.2-52.6-14.5    c-0.1-1.7-0.1-3.4-0.1-5.1c0-1.7,0-3.3,0.1-5c7.3-5.3,25.8-10.5,52.6-14.5c0.4-0.1,0.7-0.1,1.1-0.2c-0.4,6.5-0.7,13-0.7,19.7    C111.5,242.6,111.8,249.1,112.2,255.6 M58.6,243.2c8.9,5.8,28.3,10.6,53.8,14.3c0.9,12.7,2.7,25.1,5.2,36.9    c-29.1-11-50-25.6-58.5-42.1C58.9,249.3,58.7,246.2,58.6,243.2 M114.2,257.7c16.3,2.3,35,4.1,54.9,5.4c0.9,15.9,2.5,31.4,4.9,46.1    c-20.1-3.5-38.4-8.3-54.4-14.1C117,283.1,115.2,270.6,114.2,257.7 M170.9,263.3c15.6,1,31.8,1.7,48.4,2.1    c0.4,17.1,1.1,33.6,2,49.2c-15.8-0.9-31.1-2.6-45.4-5C173.5,294.9,171.8,279.4,170.9,263.3 M221.4,316.4    c1.3,20.4,3.1,39.3,5.4,55.9c-12.7-1-25-2.9-36.8-5.5c-5.8-16.2-10.5-34.9-13.9-55.3C190.6,313.9,205.8,315.6,221.4,316.4     M254.7,429.9c6-8.5,11-28.8,14.7-55.7c12.5-1,24.6-2.8,36.3-5.3c-11.4,31.2-26.7,53.1-43.9,60.7    C259.4,429.7,257.1,429.8,254.7,429.9 M269.7,372.3c2.2-16.6,4-35.6,5.3-55.9c15.7-0.9,30.8-2.5,45.3-4.9    c-3.4,20.4-8.1,39.1-13.9,55.3C294.6,369.4,282.3,371.3,269.7,372.3 M275.2,314.6c1-15.8,1.7-32.4,2.1-49.2    c16.8-0.4,33-1.1,48.4-2.1c-0.9,16.1-2.6,31.6-4.9,46.2C306.3,312,291,313.7,275.2,314.6 M327.4,263.2c20.1-1.3,38.6-3.2,54.9-5.5    c-1,12.9-2.8,25.4-5.4,37.4c-15.9,5.8-34.3,10.7-54.3,14.1C324.9,294.5,326.5,279.1,327.4,263.2 M384.2,257.5    c0.5-0.1,1-0.1,1.5-0.2c19.6-2.9,41.9-7.5,52.1-14c-0.1,3.1-0.3,6.2-0.6,9.3c-8.5,16.3-29.4,30.8-58.3,41.8    C381.4,282.5,383.2,270.2,384.2,257.5 M436.8,214.9c-8.7-13.8-26.1-26.4-50.9-36.6c-2.4-1-4.9-2-7.4-2.9c-4-18.1-9.8-35.1-17-50.6    c35,18.1,61.2,44.2,73.1,74.6C435.5,204.5,436.2,209.6,436.8,214.9 M376.4,174.6c-16.3-5.9-34.6-10.6-54.2-14    c-3.3-20-7.9-38.6-13.7-55.1c18.1,4.2,35,10.3,50.3,17.9C366.3,139,372.3,156.2,376.4,174.6 M307.8,103.5    c-0.9-2.6-1.9-5.1-2.9-7.6c-10.7-26.7-24-44.9-38.4-53.3c3.8,0.4,7.6,0.9,11.3,1.5c32.6,10.7,60.7,38.5,79.7,76.6    C342.3,113.4,325.6,107.6,307.8,103.5 M230,42.7c-14.5,8.3-27.7,26.5-38.4,53.3c-1,2.5-1.9,5-2.9,7.6    c-17.8,4.1-34.5,9.9-49.7,17.3c19-38.2,47.2-66.1,79.8-76.7C222.5,43.5,226.3,43,230,42.7 M188,105.5    c-5.8,16.6-10.4,35.1-13.7,55.1c-19.6,3.4-37.9,8-54.2,14c4.2-18.4,10.1-35.6,17.6-51.2C153,115.8,169.9,109.8,188,105.5     M118.1,175.3c-2.5,0.9-5,1.9-7.4,2.9c-25,10.3-42.5,23.1-51.1,37c0.5-5.1,1.3-10.2,2.2-15.1c11.7-30.7,38-57.1,73.4-75.3    C127.9,140.2,122.1,157.2,118.1,175.3 M59.6,256.6c8.6,13.9,26.1,26.6,51.1,37c2.4,1,4.9,2,7.4,2.9c4,18.1,9.8,35.1,17,50.6    c-35.3-18.2-61.6-44.6-73.3-75.3C60.8,266.8,60.1,261.8,59.6,256.6 M120.1,297.3c16.3,5.9,34.6,10.6,54.2,13.9    c3.3,20,7.9,38.6,13.7,55.1c-18.1-4.2-35-10.3-50.3-17.9C130.2,332.9,124.2,315.6,120.1,297.3 M188.7,368.4    c0.9,2.6,1.9,5.1,2.9,7.6c10.7,26.7,23.9,44.8,38.3,53.2c-3.9-0.4-7.7-0.9-11.5-1.5c-32.4-10.7-60.5-38.5-79.4-76.5    C154.2,358.4,170.9,364.3,188.7,368.4 M266.7,429.1c14.4-8.3,27.6-26.5,38.3-53.2c1-2.5,1.9-5,2.9-7.6    c17.8-4.1,34.5-9.9,49.7-17.3c-18.9,37.9-46.9,65.7-79.2,76.5C274.5,428.2,270.6,428.7,266.7,429.1 M308.5,366.3    c5.8-16.6,10.4-35.1,13.7-55.1c19.6-3.3,37.9-8,54.2-13.9c-4.2,18.4-10.1,35.6-17.6,51.2C343.5,356,326.6,362.1,308.5,366.3     M378.4,296.5c2.5-0.9,5-1.9,7.4-2.9c24.8-10.3,42.2-22.9,50.9-36.6c-0.6,5.3-1.3,10.5-2.3,15.6c-11.9,30.3-38,56.5-73,74.5    C368.7,331.7,374.4,314.6,378.4,296.5 M432.7,190.7c-13.5-27.9-39.2-51.9-72.5-68.6c-17.3-35.8-42.7-63-72.2-76    C359.2,61.7,415.8,118.4,432.7,190.7 M208.8,46c-29.6,13-55,40.2-72.4,76.1c-33.6,16.9-59.4,41.1-72.9,69.3    C80.2,118.6,137.1,61.5,208.8,46 M63.5,280.5c13.4,28.2,39.2,52.4,72.8,69.2c17.3,35.8,42.6,62.9,72.1,76    C137,410.1,80.3,353.1,63.5,280.5 M288.3,425.6c29.4-13.1,54.6-40.2,71.9-75.9c33.3-16.7,59-40.6,72.5-68.5    C415.7,353.3,359.3,409.9,288.3,425.6"></path>
		<polygon class="st1" points="57.1,343 58.8,342.5 55.9,336.7 59.5,335.6 62.5,341.5 64.4,340.9 60.9,334 64.7,332.9 70.5,344.3     55.6,348.7 49.9,337.5 53.7,336.4   "></polygon>
		<polygon class="st1" points="40.7,317 55.9,314.2 57.7,318.6 50.7,319.9 57.5,321.9 58.3,324.1 54.1,328.3 60.9,327 62.6,331.5     47.4,334.3 45.8,330.3 52.2,324.2 42.3,321.2   "></polygon>
		<path class="st1" d="M37.6,301.8c0.5-1.3,1.6-2.2,3.1-2.7c1.2-0.3,2.4-0.3,3.5,0c1.1,0.4,2.1,1,2.9,2c0.8,1,1.4,2.2,1.9,3.8    l0.7,2.6l3.8-0.3l1.4,5l-15.5,1.2l-1.8-6.6C37,304.8,37,303.1,37.6,301.8 M44.2,304.2c-0.4-0.3-1-0.3-1.6-0.2c-1,0.3-1.3,1-1,2.3    L42,308l3.6-0.3l-0.6-2.1C44.9,305,44.6,304.5,44.2,304.2"></path>
		<path class="st1" d="M40.6,283c1.1,0.5,2,1.4,2.8,2.6l3.9-3.4l1,5.3l-3.4,2.9l0.2,1.3l3.9,0l0.9,5.1l-15.5-0.2l-1.2-6.8    c-0.4-2-0.2-3.6,0.4-4.9c0.7-1.3,1.8-2.1,3.3-2.3C38.2,282.3,39.4,282.5,40.6,283 M37.1,289.9l0.3,1.7l3.6,0.1l-0.4-2.1    c-0.1-0.7-0.4-1.2-0.8-1.6c-0.4-0.3-0.9-0.4-1.6-0.3C37.3,287.9,36.9,288.6,37.1,289.9"></path>
		<polygon class="st1" points="35,274.7 36.8,274.9 36.2,268.4 40,268.8 40.6,275.3 42.6,275.5 41.9,267.8 45.8,268.2 47,281     31.6,279.4 30.4,266.9 34.3,267.3   "></polygon>
		<path class="st1" d="M44.7,263.7c-0.3,1.2-0.6,2.2-1.1,2.9l-3.8-2c0.9-1.7,1.4-3.4,1.3-5.2c0-0.7-0.1-1.2-0.3-1.5    c-0.2-0.4-0.4-0.5-0.7-0.5c-0.3,0-0.5,0.2-0.6,0.5c-0.2,0.4-0.3,0.9-0.5,1.7c-0.2,1-0.5,1.9-0.8,2.6c-0.3,0.7-0.7,1.3-1.2,1.8    c-0.6,0.5-1.3,0.8-2.2,0.8c-1.1,0-2.2-0.3-3-0.9c-0.9-0.6-1.5-1.5-2-2.7c-0.5-1.2-0.7-2.6-0.8-4.2c0-1.1,0.1-2.2,0.3-3.2    c0.2-1,0.5-1.9,0.9-2.6l3.8,1.8c-0.4,0.6-0.7,1.3-0.8,2c-0.2,0.7-0.3,1.5-0.3,2.3c0,0.7,0.1,1.3,0.3,1.7c0.2,0.4,0.5,0.6,0.7,0.6    c0.3,0,0.5-0.2,0.6-0.6c0.1-0.4,0.3-1,0.5-1.8c0.2-1,0.5-1.9,0.7-2.5c0.2-0.7,0.7-1.3,1.2-1.8c0.5-0.5,1.2-0.8,2.2-0.8    c1.1,0,2.1,0.3,3,0.9c0.9,0.6,1.6,1.5,2,2.7c0.5,1.2,0.7,2.5,0.8,4.1C45.1,261.3,45,262.6,44.7,263.7"></path>
		<path class="st1" d="M42,238.5l-0.4,5.9l2.5,1.8l-0.4,5.5l-14.5-11l0.4-5.1L45,233l-0.4,5.2L42,238.5z M38.2,238.9l-3.9,0.4    l3.7,2.6L38.2,238.9z"></path>
		<polygon class="st1" points="73.9,103.6 75.2,104.8 78.4,99.1 81.3,101.6 78,107.3 79.6,108.7 83.4,102 86.3,104.6 80,115.8     68.4,105.3 74.6,94.4 77.5,97.1   "></polygon>
		<polygon class="st1" points="87.8,76.6 98.4,88.2 95.6,92 90.8,86.8 92.8,93.6 91.5,95.5 85.7,94.2 90.4,99.4 87.7,103.2     77.1,91.7 79.6,88.2 88.1,90.3 85.2,80.2   "></polygon>
		<path class="st1" d="M99.7,66.7c1.4-0.3,2.7,0.2,3.9,1.2c0.9,0.9,1.6,1.9,1.9,3c0.3,1.1,0.3,2.3-0.1,3.6c-0.4,1.2-1.1,2.5-2.1,3.6    l-1.7,2l2.3,3.1l-3.4,3.9L91,74.5l4.5-5.1C96.9,67.8,98.3,66.9,99.7,66.7 M101.2,73.6c0-0.5-0.3-1-0.7-1.4    c-0.8-0.7-1.6-0.6-2.4,0.4l-1.1,1.3l2.2,3l1.4-1.6C100.9,74.7,101.2,74.2,101.2,73.6"></path>
		<path class="st1" d="M117.6,62c0.2,1.2-0.1,2.5-0.7,3.8l4.9,1.5l-3.9,3.7l-4.2-1.3l-0.9,0.9l2.1,3.4l-3.7,3.6L102.9,64l5-4.7    c1.5-1.4,2.9-2.1,4.3-2.3c1.4-0.1,2.7,0.4,3.7,1.6C116.9,59.6,117.4,60.7,117.6,62 M110,62.8l-1.2,1.2l1.9,3.1l1.5-1.5    c0.5-0.5,0.8-1,0.8-1.6c0-0.5-0.2-1-0.6-1.5C111.8,61.8,111,61.9,110,62.8"></path>
		<polygon class="st1" points="121.4,53.4 122.2,55 127.3,51 129,54.4 123.9,58.4 124.8,60.3 130.8,55.5 132.6,59.1 122.7,67     115.7,52.9 125.4,45.2 127.2,48.7   "></polygon>
		<path class="st1" d="M136.2,56.8c-1.1,0.4-2.1,0.6-3,0.7l-0.4-4.3c1.9-0.1,3.6-0.7,5.1-1.7c0.5-0.4,0.9-0.7,1.1-1    c0.2-0.4,0.2-0.6,0.1-0.8c-0.2-0.2-0.4-0.3-0.8-0.3c-0.4,0.1-0.9,0.2-1.7,0.5c-1,0.4-1.8,0.6-2.5,0.7c-0.7,0.2-1.4,0.1-2.1-0.1    c-0.7-0.2-1.3-0.7-1.9-1.5c-0.6-0.9-0.9-2-0.9-3.1s0.4-2.1,1.1-3.2c0.7-1.1,1.7-2,3.1-2.9c0.9-0.6,1.9-1.1,2.8-1.5    c0.9-0.3,1.8-0.5,2.6-0.6l0.5,4.2c-0.7,0-1.4,0.1-2.1,0.4c-0.7,0.2-1.4,0.6-2,1c-0.6,0.4-1,0.8-1.2,1.2c-0.2,0.4-0.2,0.7-0.1,0.9    c0.2,0.2,0.4,0.3,0.8,0.3c0.4-0.1,1-0.3,1.8-0.5c0.9-0.4,1.8-0.6,2.5-0.8c0.7-0.2,1.4-0.1,2.1,0.1c0.7,0.2,1.3,0.7,1.8,1.4    c0.6,0.9,0.9,2,0.9,3c-0.1,1.1-0.4,2.1-1.1,3.2c-0.7,1.1-1.7,2-3,2.9C138.4,55.8,137.3,56.3,136.2,56.8"></path>
		<path class="st1" d="M155.2,43.4l-5.4,2.1l-0.5,3.1l-5.1,2l3.6-18l4.7-1.8l8.8,13.1l-4.8,1.9L155.2,43.4z M153.2,40.1l-2.1-3.4    l-0.7,4.5L153.2,40.1z"></path>
		<path class="st1" d="M280.2,24.3l-5.8-0.5l-1.7,2.6l-5.4-0.4l10.9-14.7l5,0.4l2.4,15.7l-5.1-0.4L280.2,24.3z M279.7,20.5l-0.4-4    l-2.5,3.8L279.7,20.5z"></path>
		<path class="st1" d="M31.9,209.9c0.9-1.1,2.2-1.6,3.8-1.5c1.3,0.1,2.4,0.5,3.3,1.2c0.9,0.7,1.6,1.7,2.1,2.9    c0.5,1.2,0.7,2.6,0.5,4.2l-0.2,2.7l3.7,1l-0.3,5.2l-15-4.1l0.4-6.9C30.4,212.5,30.9,210.9,31.9,209.9 M37.3,214.4    c-0.3-0.4-0.8-0.7-1.4-0.7c-1-0.1-1.6,0.6-1.7,1.8l-0.1,1.7l3.5,1l0.1-2.1C37.7,215.4,37.6,214.8,37.3,214.4"></path>
		<path class="st1" d="M27.8,195.1l0.8-4.8l2.7,5.2l-0.5,3.4L27.8,195.1z M46.1,205.7c-0.6,0.9-1.4,1.6-2.3,2    c-0.9,0.4-1.9,0.5-3,0.3c-0.5-0.1-1-0.2-1.6-0.4l-8-3l0.8-5.2l7.9,3c0.4,0.1,0.7,0.2,1.1,0.3c0.7,0.1,1.2,0,1.6-0.3    c0.4-0.3,0.6-0.8,0.7-1.5c0.1-0.7,0-1.4-0.4-1.9c-0.4-0.5-1.1-1-2.2-1.4l-7.9-3l0.8-5.1l8.2,3.1c2.2,0.8,3.8,2,4.7,3.6    c0.9,1.6,1.2,3.5,0.9,5.9C47.1,203.6,46.7,204.7,46.1,205.7"></path>
		<path class="st1" d="M45.8,176.3c0.6-0.2,1.2-0.2,1.9-0.1c1.6,0.4,2.6,1.4,3,2.9c0.4,1.5,0.4,3.3-0.1,5.3l-2.2,8.6l-14-6.9l2-7.9    c0.4-1.8,1.1-3,1.9-3.8c0.8-0.8,1.8-1,3-0.7c0.8,0.2,1.5,0.6,2,1.3c0.5,0.6,0.8,1.4,1,2.4C44.7,176.9,45.2,176.5,45.8,176.3     M38.9,182.9l2.1,1l0.7-2.5c0.3-1.1,0-1.8-0.9-2c-0.3-0.1-0.6,0-0.8,0.2c-0.2,0.2-0.4,0.5-0.5,0.9L38.9,182.9z M47.1,181.9    c-0.2-0.4-0.5-0.6-0.9-0.7c-0.3-0.1-0.6,0-0.8,0.2c-0.3,0.2-0.4,0.5-0.5,0.8l-0.8,3.2l2.2,1.1l0.8-3.3    C47.3,182.8,47.3,182.3,47.1,181.9"></path>
		<polygon class="st1" points="38.4,168.4 40.1,163.5 50,169.5 52.2,162.9 55.7,165 51.8,176.5   "></polygon>
		<polygon class="st1" points="43,154.1 45,149.3 57.8,158.3 55.8,163   "></polygon>
		<path class="st1" d="M59.7,151.3c-1,0.8-2.2,1.3-3.4,1.4c-1.2,0.1-2.4-0.1-3.6-0.7c-1.6-0.8-2.8-1.9-3.7-3.3    c-0.8-1.4-1.3-2.9-1.3-4.6c-0.1-1.7,0.3-3.4,1.2-5.1c0.7-1.3,1.5-2.4,2.4-3.2c1-0.8,2-1.2,3.1-1.3l0.9,4.7c-1.4,0.1-2.4,0.7-3,2    c-0.4,0.7-0.5,1.5-0.4,2.2s0.4,1.4,0.8,2.1c0.5,0.6,1.1,1.2,1.9,1.6c0.8,0.4,1.6,0.5,2.3,0.2c0.8-0.3,1.3-0.8,1.7-1.7    c0.6-1.2,0.6-2.5-0.1-3.9l3.9-1.4c0.6,1.3,0.8,2.6,0.7,3.8c-0.1,1.2-0.5,2.5-1.1,3.9C61.6,149.4,60.7,150.5,59.7,151.3"></path>
		<path class="st1" d="M68.6,127.5l-2.8,5.2l1.6,2.6l-2.6,4.8l-8.7-16.1l2.4-4.5l15.1,4.2l-2.4,4.6L68.6,127.5z M65,126.3l-3.8-1.2    l2.3,3.9L65,126.3z"></path>
		<polygon class="st1" points="188.3,16.4 189.4,32.2 184.9,33.4 184.4,26.2 181.7,32.8 179.5,33.4 175.8,28.7 176.3,35.8 171.8,37     170.7,21.3 174.8,20.2 180.1,27.2 184.1,17.6   "></polygon>
		<path class="st1" d="M194.8,31.4c-1-0.3-1.9-0.8-2.5-1.6c-0.7-0.8-1.1-1.7-1.3-2.8c-0.1-0.5-0.1-1-0.1-1.6l0.3-8.7l5.1-0.8    l-0.3,8.6c0,0.4,0,0.8,0,1.1c0.1,0.7,0.4,1.2,0.8,1.4c0.4,0.3,0.9,0.4,1.6,0.3c0.8-0.1,1.3-0.5,1.6-1c0.3-0.5,0.5-1.4,0.6-2.6    l0.3-8.6l5-0.8l-0.3,8.9c-0.1,2.4-0.7,4.3-1.9,5.7c-1.2,1.4-2.9,2.3-5.2,2.7C197.1,31.7,195.9,31.6,194.8,31.4"></path>
		<polygon class="st1" points="223.1,12.5 221.4,28.2 217.2,28.5 212.2,21.8 211.5,29.1 206.5,29.5 208.2,13.8 212.4,13.4     217.3,20.2 218.1,12.9   "></polygon>
		<polygon class="st1" points="226.3,12 231.4,11.5 229.6,27.2 224.5,27.6   "></polygon>
		<path class="st1" d="M236.7,26.4c-1.3-0.4-2.3-1-3.1-1.9c-0.8-0.9-1.3-2-1.6-3.4c-0.3-1.8-0.2-3.4,0.4-4.9    c0.6-1.5,1.5-2.8,2.8-3.8c1.3-1,2.8-1.7,4.7-2c1.4-0.3,2.8-0.2,4,0.1c1.2,0.3,2.2,0.9,2.9,1.8l-3.1,3.6c-0.9-1.1-2-1.5-3.3-1.2    c-0.8,0.1-1.4,0.5-2,1c-0.6,0.5-0.9,1.1-1.1,1.9c-0.2,0.8-0.3,1.6-0.1,2.5c0.2,0.9,0.6,1.6,1.2,2c0.7,0.4,1.4,0.6,2.4,0.4    c1.3-0.2,2.3-1,3-2.4l3.5,2.3c-0.7,1.3-1.5,2.2-2.6,2.9c-1,0.7-2.3,1.1-3.7,1.4C239.4,26.8,238,26.7,236.7,26.4"></path>
		<polygon class="st1" points="250,10.8 255.1,10.4 253.1,26.1 248,26.4   "></polygon>
		<path class="st1" d="M269.2,11.3c1.2,0.8,1.8,2.1,1.9,3.7c0.1,1.3-0.2,2.5-0.7,3.5c-0.6,1-1.4,1.8-2.6,2.5c-1.1,0.6-2.5,1-4,1.1    l-2.6,0.2l-0.5,3.8l-5.1,0.3l2.1-15.6l6.7-0.4C266.4,10.1,268,10.4,269.2,11.3 M265.4,17.3c0.4-0.4,0.5-0.9,0.5-1.6    c-0.1-1-0.7-1.5-2-1.4l-1.7,0.1l-0.5,3.7l2.1-0.1C264.5,17.9,265,17.6,265.4,17.3"></path>
		<polygon class="st1" points="291.6,12.5 296.7,13.2 292.9,24.2 299.7,25.2 298.4,29 286.5,27.4   "></polygon>
		<polygon class="st1" points="329.7,22.2 322.2,36 317.8,34.5 321.2,28.2 315.4,32.3 313.3,31.6 312.7,25.6 309.3,31.8 304.8,30.4     312.3,16.6 316.3,17.8 317,26.7 325.5,20.8   "></polygon>
		<polygon class="st1" points="335.4,29.1 334.4,30.7 340.3,33.2 338.1,36.4 332.2,33.8 331.1,35.5 338.1,38.6 335.8,41.9     324.2,36.8 333,23.8 344.4,28.8 342.1,32.1   "></polygon>
		<path class="st1" d="M353.8,43.8c-1.1,0.6-2.4,0.7-3.7,0.6l0.1,5.2l-4.7-2.6l-0.1-4.5l-1.1-0.6l-2.5,3.1l-4.5-2.5l9.9-12.1l6,3.3    c1.8,1,2.9,2.1,3.5,3.4c0.6,1.3,0.5,2.7-0.3,4.1C355.8,42.4,354.9,43.3,353.8,43.8 M350.7,36.8l-1.5-0.8l-2.3,2.8l1.9,1    c0.6,0.4,1.2,0.5,1.7,0.3c0.5-0.1,0.9-0.5,1.2-1C352.1,38.2,351.8,37.4,350.7,36.8"></path>
		<path class="st1" d="M355.4,52.3c-0.7-1.1-1-2.3-1-3.6c0-1.2,0.4-2.4,1.2-3.5c1-1.5,2.2-2.6,3.6-3.3c1.4-0.7,3-1,4.6-0.8    c1.6,0.2,3.2,0.8,4.8,1.8c1.2,0.8,2.2,1.8,2.8,2.9c0.7,1.1,0.9,2.2,0.8,3.3l-4.7,0.4c0.1-1.4-0.4-2.5-1.5-3.2    c-0.7-0.5-1.4-0.7-2.1-0.7c-0.7,0-1.4,0.2-2.1,0.6c-0.7,0.4-1.3,1-1.8,1.8c-0.5,0.8-0.7,1.5-0.5,2.3c0.2,0.8,0.7,1.4,1.5,2    c1.1,0.7,2.3,0.9,3.8,0.4l0.9,4.2c-1.3,0.4-2.6,0.5-3.8,0.3c-1.2-0.2-2.4-0.8-3.7-1.6C357,54.5,356,53.5,355.4,52.3"></path>
		<path class="st1" d="M376.6,64.4l-4.5-3.7l-2.8,1.1l-4.2-3.5l17.1-5.8l3.9,3.2L379.3,70l-4-3.3L376.6,64.4z M378.4,61l1.9-3.5    l-4.2,1.6L378.4,61z"></path>
		<path class="st1" d="M390.9,60.1l5.5,4.1c1.3,1,2.3,2,2.9,3.1c0.6,1.1,0.9,2.3,0.8,3.5c-0.1,1.2-0.5,2.3-1.3,3.4    c-1,1.4-2.3,2.4-3.7,3c-1.4,0.6-2.9,0.8-4.5,0.5c-1.6-0.3-3.1-1-4.6-2.1l-6.5-4.9L390.9,60.1z M388.5,72.5    c1.1,0.8,2.1,1.1,3.2,0.8c1.1-0.2,2-0.9,2.8-2c0.5-0.7,0.7-1.5,0.6-2.2c-0.2-0.7-0.7-1.4-1.5-2L392,66l-5.4,5L388.5,72.5z"></path>
		<path class="st1" d="M395.4,83.7c-0.3-1.3-0.3-2.5,0.2-3.7c0.4-1.2,1.1-2.2,2.1-3c1.4-1.1,2.9-1.8,4.4-2.1    c1.6-0.3,3.2-0.1,4.7,0.6c1.5,0.6,2.9,1.7,4,3.1c1,1.2,1.6,2.5,1.9,3.8c0.3,1.3,0.3,2.5-0.1,3.7c-0.4,1.1-1.1,2.2-2.2,3    c-1.3,1.1-2.8,1.8-4.4,2.1c-1.6,0.3-3.1,0.1-4.7-0.6c-1.5-0.7-2.9-1.7-4-3.2C396.3,86.2,395.7,85,395.4,83.7 M402.6,86.4    c0.7,0.2,1.4,0.2,2.2,0c0.7-0.2,1.4-0.6,2.1-1.1c0.7-0.6,1.1-1.2,1.2-2c0.1-0.8-0.2-1.5-0.8-2.2c-0.5-0.6-1.1-1-1.8-1.2    c-0.7-0.2-1.4-0.2-2.2,0c-0.8,0.2-1.5,0.6-2.1,1.1c-0.7,0.6-1.1,1.3-1.1,2c-0.1,0.8,0.2,1.5,0.8,2.2    C401.3,85.8,401.9,86.2,402.6,86.4"></path>
		<polygon class="st1" points="433.2,105.8 419.6,113.5 416.6,109.9 422.8,106.4 415.7,106.7 414.3,104.9 416.9,99.5 410.8,103     407.8,99.3 421.4,91.7 424.1,94.9 420.1,102.8 430.3,102.4   "></polygon>
		<path class="st1" d="M429.3,123l-3.3-4.9l-3,0.2l-3-4.6l18-0.5l2.8,4.3l-10.6,11.7l-2.8-4.3L429.3,123z M432,120.3l2.8-2.8    l-4.5,0.3L432,120.3z"></path>
		<polygon class="st1" points="439.7,135.2 434.3,136.9 431.9,132.3 437.3,130.6 443.9,122.5 446.4,127 442.7,131.5 449.4,132.6     451.9,137.2   "></polygon>
		<path class="st1" d="M439.3,145.6c0.1-1.3,0.4-2.5,1.1-3.5c0.7-1,1.6-1.8,2.8-2.3c1.6-0.7,3.2-1,4.8-0.8c1.6,0.2,3,0.8,4.3,1.9    c1.3,1,2.3,2.4,3,4.1c0.6,1.4,0.9,2.8,0.9,4.2c-0.1,1.3-0.4,2.5-1.1,3.5c-0.7,1-1.7,1.8-2.9,2.3c-1.6,0.7-3.3,1-4.8,0.8    c-1.6-0.2-3-0.8-4.3-1.9c-1.3-1-2.3-2.4-3.1-4.1C439.5,148.3,439.3,147,439.3,145.6 M445.6,150.2c0.6,0.4,1.3,0.6,2.1,0.6    c0.8,0,1.6-0.2,2.3-0.5c0.8-0.4,1.4-0.9,1.7-1.6c0.3-0.7,0.2-1.5-0.1-2.4c-0.3-0.8-0.8-1.3-1.4-1.7c-0.6-0.4-1.3-0.6-2.1-0.6    c-0.8,0-1.6,0.2-2.3,0.5c-0.8,0.4-1.4,0.9-1.7,1.6c-0.3,0.7-0.2,1.5,0.2,2.4C444.5,149.2,444.9,149.8,445.6,150.2"></path>
		<path class="st1" d="M455.3,171c-1.2-0.4-2.2-1.1-3.1-2.2l-3.4,3.8l-1.7-5.1l3-3.3l-0.4-1.2l-3.9,0.5l-1.6-5l15.4-1.8l2.1,6.6    c0.6,1.9,0.7,3.6,0.2,4.9c-0.5,1.3-1.5,2.3-3,2.8C457.7,171.4,456.5,171.4,455.3,171 M457.8,163.8l-0.5-1.7l-3.6,0.4l0.7,2    c0.2,0.7,0.6,1.2,1,1.4c0.5,0.3,1,0.3,1.6,0.1C457.9,165.8,458.2,165,457.8,163.8"></path>
		<polygon class="st1" points="464.6,173.2 465.8,178.2 450.3,179.1 449.1,174   "></polygon>
		<path class="st1" d="M451.5,183.5c0.1-1.2,0.3-2.2,0.6-3.1l4.1,1.2c-0.6,1.8-0.8,3.6-0.4,5.4c0.1,0.7,0.3,1.1,0.5,1.4    c0.2,0.3,0.5,0.5,0.7,0.4c0.3-0.1,0.4-0.3,0.5-0.7c0.1-0.4,0.2-1,0.2-1.8c0.1-1.1,0.2-2,0.3-2.7c0.1-0.7,0.4-1.4,0.9-2    c0.5-0.6,1.1-1,2-1.2c1.1-0.2,2.2-0.1,3.1,0.4c0.9,0.4,1.8,1.2,2.5,2.3c0.7,1.1,1.2,2.4,1.4,4c0.2,1.1,0.3,2.2,0.3,3.2    c0,1-0.2,1.9-0.5,2.7l-4-1.1c0.3-0.7,0.4-1.4,0.5-2.1c0.1-0.8,0-1.5-0.1-2.3c-0.1-0.7-0.4-1.2-0.6-1.6c-0.3-0.3-0.6-0.5-0.8-0.5    c-0.3,0.1-0.5,0.3-0.6,0.7c-0.1,0.4-0.2,1-0.2,1.8c-0.1,1-0.1,1.9-0.3,2.6c-0.1,0.7-0.4,1.4-0.9,2c-0.4,0.6-1.1,1-2,1.2    c-1.1,0.2-2.1,0.1-3.1-0.4c-1-0.5-1.8-1.2-2.5-2.3c-0.7-1.1-1.2-2.4-1.4-3.9C451.5,186,451.4,184.8,451.5,183.5"></path>
		<polygon class="st1" points="465.3,199.4 464.8,194.9 468.9,195.3 470.4,209.4 466.3,209.1 465.9,204.6 454.5,203.5 453.9,198.3       "></polygon>
		<path class="st1" d="M458,219.5l-0.1-5.9l-2.7-1.5l-0.1-5.5l15.4,9.5l0.1,5.1l-15.1,4l-0.1-5.2L458,219.5z M461.6,218.7l3.9-0.8    l-3.9-2.2L461.6,218.7z"></path>
		<path class="st1" d="M459.6,248.7v-5.9l-2.6-1.6v-5.5l15.2,9.9l0,5.1l-15.2,3.6l0-5.2L459.6,248.7z M463.3,248l3.9-0.7l-3.9-2.3    L463.3,248z"></path>
		<polygon class="st1" points="469.8,278 455,273.3 455.5,268.6 462.3,270.7 457.2,265.8 457.5,263.5 463.2,261.7 456.5,259.6     457,254.8 471.8,259.6 471.3,263.8 463,266.3 470.3,273.6   "></polygon>
		<path class="st1" d="M457.8,292.1c-0.6,0.2-1.2,0.3-1.9,0.1c-1.6-0.4-2.6-1.3-3.1-2.8c-0.5-1.5-0.5-3.3-0.1-5.3l1.9-8.7l14.2,6.4    l-1.7,8c-0.4,1.8-1,3.1-1.8,3.8c-0.8,0.8-1.8,1-2.9,0.8c-0.8-0.2-1.5-0.6-2-1.2c-0.5-0.6-0.9-1.4-1-2.3    C458.9,291.5,458.4,291.9,457.8,292.1 M456.3,286.5c0.2,0.4,0.5,0.6,0.9,0.7c0.3,0.1,0.6,0,0.8-0.2c0.2-0.2,0.4-0.5,0.5-0.8    l0.7-3.3l-2.2-1l-0.7,3.3C456.1,285.7,456.1,286.1,456.3,286.5 M464.4,285.3l-2.1-0.9l-0.6,2.6c-0.2,1.1,0.1,1.8,0.9,2    c0.3,0.1,0.6,0,0.8-0.2c0.2-0.2,0.3-0.5,0.4-0.9L464.4,285.3z"></path>
		<path class="st1" d="M450.2,303.3l1.8-5.6l-2-2.3l1.7-5.2l11.5,14.2l-1.6,4.9l-15.6-1.3l1.6-4.9L450.2,303.3z M454,303.8l3.9,0.5    l-3-3.4L454,303.8z"></path>
		<polygon class="st1" points="454.2,317.3 456,313.1 459.3,315.5 453.8,328.6 450.5,326.3 452.2,322.1 442.7,315.6 444.7,310.7       "></polygon>
		<path class="st1" d="M439.1,324.8c1.1-0.8,2.2-1.2,3.4-1.3c1.2-0.1,2.4,0.2,3.6,0.8c1.6,0.8,2.8,2,3.6,3.4    c0.8,1.4,1.3,2.9,1.2,4.6c0,1.7-0.4,3.3-1.3,5c-0.7,1.4-1.6,2.5-2.7,3.3c-1.1,0.8-2.2,1.2-3.4,1.3c-1.2,0.1-2.4-0.2-3.6-0.8    c-1.6-0.8-2.8-2-3.6-3.4c-0.8-1.4-1.3-2.9-1.3-4.6c0-1.7,0.5-3.3,1.3-5C437.2,326.6,438.1,325.5,439.1,324.8 M439.5,332.6    c0.1,0.7,0.4,1.4,0.9,2.1c0.5,0.6,1.1,1.1,1.8,1.5c0.8,0.4,1.6,0.5,2.3,0.3c0.7-0.2,1.3-0.8,1.8-1.6c0.4-0.7,0.5-1.5,0.4-2.2    c-0.1-0.7-0.4-1.4-0.8-2c-0.5-0.6-1.1-1.1-1.8-1.6c-0.8-0.4-1.6-0.5-2.3-0.3c-0.7,0.2-1.3,0.8-1.7,1.6    C439.5,331.1,439.4,331.9,439.5,332.6"></path>
		<path class="st2" d="M45.3,375.3c0,0,22-20.8,29.4-24.9c0,0,8.6,14.1,14.7,19.5c0,0-17.6,18.7-21.6,32.4    C67.7,402.3,54.7,388.2,45.3,375.3"></path>
		<path class="st3" d="M72.2,407.3c0,0,3.3-14.5,19.6-34.5l11,13.3c0,0-6.9,11.6-13.9,34.5L72.2,407.3z"></path>
		<path class="st4" d="M106.5,389.8l10.6,8.3c0,0-3.3,19.5-2.9,36.5l-19.2-10C95.1,424.7,100.4,403.1,106.5,389.8"></path>
		<path class="st5" d="M421.1,353.5c0,0,15.6,9.5,26.5,26.4c0,0-4.9,8.2-13.2,15.4c0,0-6.8-15.1-21.3-30.7L421.1,353.5z"></path>
		<path class="st6" d="M410.4,367.7c0,0,14.3,17.5,20,32.8l-15.9,15.1c0,0-4.2-18-15.3-34.9C399.2,380.7,405.2,375.4,410.4,367.7"></path>
		<path class="st5" d="M383.4,395.3l13.5-12.2c0,0,9.4,14.8,13.5,34.9c0,0-10.1,7.7-22.6,13.5C387.8,431.5,389.1,416.4,383.4,395.3"></path>
		<polygon class="st1" points="91.2,489.9 107.6,443.3 145.4,443.3 141.6,453.8 127.3,453.8 125.5,459 139.8,459 136.1,469.6     121.7,469.6 118.4,479.4 132.7,479.4 129,489.9   "></polygon>
		<path class="st1" d="M133,489.9l16.4-46.7h38.3c3.3,0,5.8,0.3,7.6,0.8c3,0.9,4.5,2.7,4.5,5.3c0,1.1-0.2,2.4-0.7,3.9l-4.5,12.9    c-1.6,4.5-4,7.5-7.2,9.2c-2.6,1.4-6.5,2-11.6,2h-14.9l-4.4,12.5H133z M172.3,453.8H169l-4.6,13.1h3.1c2.2,0,3.7-1.1,4.4-3.3    l2.2-6.3c0.3-0.7,0.4-1.3,0.4-1.8C174.6,454.4,173.8,453.8,172.3,453.8"></path>
		<polygon class="st7" points="228.8,466.7 224.9,477.4 194.7,477.5 198.6,466.7   "></polygon>
		<polygon class="st8" points="226.4,489.9 242.8,443.3 280.6,443.3 276.8,453.8 262.4,453.8 260.6,459 275,459 271.3,469.6     256.9,469.6 253.5,479.4 267.9,479.4 264.2,489.9   "></polygon>
		<polygon class="st7" points="297.7,489.9 297.9,464.3 289,489.9 268.1,489.9 284.5,443.3 314.1,443.3 313.8,462.7 327,443.3     356.7,443.3 340.3,489.9 319.4,489.9 328.4,464.3 310.8,489.9   "></polygon>
		<path class="st8" d="M344,490l27-46.7h36.6l-5.9,46.7h-24.2l2.2-10.1H373l-4.9,10.1H344z M377.5,469.5h4.9l3.1-15.9L377.5,469.5z"></path>
		<path class="st9" d="M133.1,299.5c-3.7-0.4-5.4-1.4-4.4-4.7c0.9-2.7,1.1-5.6,2-8.3c1.9-5.8,11.1-8.2,16.5-4.5    c2.3,1.6,2.5,2.9,0,4.4c-1.9,1.1-3.9,2.3-5.8,3.3c-2.2,1.2-5,1.8-2.4,5.1C140.2,296.6,135.9,299.7,133.1,299.5"></path>
		<path class="st10" d="M198.4,89.1c-1.6,0.2-3.4-0.3-4.5,0.8c-4.1,4.1-9.4,3.9-14.8,3.7c-1.8-0.1-3.5,0.3-4.9,1.5    c-2.7,2.4-6.1,3.1-9.8,2.9c-4.7-0.2-7.7,3.1-11.1,5.1c-3.2,1.9-6.1,3.7-10,3.4c-3-0.2-5.2,1.4-5.7,3.4c-0.5,2.1-0.4,4.8,2.8,6    c0.6,0.2,1.2,0.7,1.7,1.1c0.2,0.1,0.1,12.9-0.1,13.1c-1.3,1.6-0.7,3.4-0.6,5.1c0.7,9.7-5.3,15.6-14,20.1    c-5.5,2.8-8.2,7.8-11.3,12.4c-1.2,1.8,0.7,3.7,1.6,5.3c1.5,2.5,1.5,4.8-0.1,7.1c-2.2,3.3-4,6.6-4.9,10.4c-1.2,4.6-5.5,3.7-9.2,3.4    c-4.1-0.3-7.9-0.7-9.9,3.6c-1,2.2-1.1,4.3,0.1,6.4c1,1.7,1.7,3.7,3.2,4.9c5.6,4.4,4.4,9.2,0.7,13.6c-2.8,3.5-1.9,6.1,0,9.5    c2.9,5.2,5.5,10.3,4.2,16.9c-1.2,6-5.5,7.4-10,8.2c-5.1,1-3.6,2.6-1.5,4.5c3.4,2.9,7.4,5,12.2,5.6c3.3,0.4,5.4,1.9,7.2,4.3    c3.7,5,8.7,8.6,15,11.1c3,1.2,4.7,0.7,6.1-1.6c2.9-4.8,8-8.4,9.5-14.1c0.3-1.2,1.6-2,3.9-2.6c-1.2,2.8-2,5.2-3.3,7.5    c-1.5,2.6-1.5,5,1.8,5.8c2.9,0.7,6-0.9,6.9-3.6c1.7-5.3,2.6-10.8,0.3-16.3c-1.4-3.3-0.3-6.1,4.9-7.9c-3.7,5.8-1,11.1-1.7,16.3    c-0.3,2.5,1.5,4.2,3.1,5.9c2.3,2.4,2.5,4.5,0.7,7.6c-2.8,4.9-4.7,10.2-6.2,15.6c-1.8,6.7-3.9,13.7-11.8,17.7    c-4.3,2.2-8.7,1.3-14.7,2.1c0,0.1,0,0.2-0.1,0.3c11.4,6.8,5.8,17.5,9.7,25.8c1.3,2.9-3.4,3.5-5.2,5.1c-0.9,0.8-2,2.5-3.9,0.7    c-2.1-2-5-1.3-6.8,0.1c-2.7,2-2.5,5-1.6,8c0.7,2.1,1.2,3.8,4.5,3.3c2.7-0.4,2.4,1.2,1.3,2.7c-0.9,1.2-1.9,2.3-2.7,3.5    c-1.1,1.5-3.2,3.2-1.1,5c1.9,1.7,4.6,1.8,7,0.7c2.6-1.2,4.6-3.1,6.3-5.1c3.1-3.7,6.2-3.4,9.8-0.6c2.4,1.8,5.3,3.2,7.9,4.8    c3,1.8,5.8,2.3,9.5,1.2c6.5-1.8,8.8-0.6,11.3,5.3c1.3,3,2.5,6,3,9.1c0.5,2.7,2.2,4.5,3.8,6.6c5.2,6.9,13,5.9,20.2,5.3    c4.5-0.4,7.3-4,7.3-8.3c-0.2-6.7,3.5-10.2,10.6-11.7c3.7-0.7,5.4-3.2,4.4-6.5c-1.8-5.5-0.6-10.3,3.4-14.7c2-2.1,1.8-4.8,2-7.3    c0.1-3.2,1-6.3,3.8-8.1c5.7-3.8,6.2-9.3,7-14.7c0.3-1.6,0.4-3.2,0.8-4.7c0.4-1.4,1.1-3,3.1-2.7c2.2,0.3,1.8,2,1.6,3.5    c-0.1,0.6,0.2,1.2,0.3,2c4-1,6.2-2.6,3.7-6.1c-1.4-2-0.8-3.1,0.8-4.4c5.7-4.9,11.3-9.8,16.8-14.7c1-0.9,2.2-1.4,3.6-1.8    c24-6,46.7-14.8,69.6-23.2c9.2-3.4,16-10.1,23-16.2c11.4-9.9,21.9-20.5,32.2-31.4c1.4-1.5,2.2-3.2,2.8-5.1    c2-6.9,4.1-13.8,6.1-20.8c0.7-2.4,1.4-3.9,4.9-3.5c3.8,0.5,6.7-0.1,4.8-4.9c-1.7-4.2-2.8-8.6-0.4-13.3c1.4-2.8-0.5-5.8-3.8-7.1    c-3.8-1.4-5.7-3.5-6.5-7.2c-0.9-4.7-5.5-6.9-9.9-9.3c1.9-1.8,3.6-1.4,5.1-0.6c3.4,1.9,6.9,0.6,10.4,0.6c0.8,0,1.9,0,1.9-1.2    c0-0.9-0.8-1.6-1.6-1.7c-7.7-0.5-13.1-6.6-21.4-6.5c-6.1,0.1-9.5-5.3-13.1-9.1c-6.1-6.3-13.2-8.9-22.3-8.1    c-1.7,0.2-2.7,0.4-3.4,2.2c-2.2,5.6-8.2,7.4-13.6,4.2c-2-1.2-3.5-1.4-5.3-0.3c-3.6,2-7,1.8-10.5-0.2c-4.6-2.6-9.1-4.5-15.3-3.6    c-8.4,1.2-13.1-4-12.7-11.9c0.1-2.5-1-3.7-3.9-4.1c-4.2-0.6-8.1-1.7-8.4-6.6c-0.1-2.4-2.6-2.2-4.6-1.7c-4.1,1.1-7.3-0.6-11.1-1.7    c-7.5-2-12.8-7.4-20.5-8.5c-0.9-0.1-1.9-1-2.5-1.6c-4.6-4.8-11-6.9-16.8-9.9c-3.7-2-6.5-5.4-9.6-8.2h-1.1c-1.6,2.6-3.1,5-3.3,8.2    C205.6,87.4,201.7,88.6,198.4,89.1"></path>
		<path class="st7" d="M389.6,154.3c0.7-0.3,1.5-0.7,2.2-1.1C391.1,153.3,390.3,153.6,389.6,154.3"></path>
		<path class="st7" d="M137.8,292.8c1.7-1.3,3.3-2.6,5-4c-0.5,0.3-1.1,0.6-1.6,0.9C139.6,290.6,137.6,291.1,137.8,292.8"></path>
		<path class="st7" d="M185.8,397.1c0-0.1,0.1-0.2,0.1-0.4c-0.1,0-0.3-0.1-0.4-0.1C185.6,396.8,185.7,396.9,185.8,397.1"></path>
		<path class="st7" d="M147.1,286.4c1.3-0.8,1.9-1.5,1.8-2.3c-2,1.6-4,3.2-6,4.7C144.3,288,145.7,287.2,147.1,286.4"></path>
		<path class="st7" d="M133,299.5c2.8,0.2,7.2-2.9,5.8-4.7c-0.6-0.8-1-1.5-1-2.1c-2.6,2-5.2,4.1-7.7,6.1    C130.8,299.2,131.8,299.4,133,299.5"></path>
		<path class="st7" d="M137.1,280.8c-1.8,1.2-3.5,2.3-5.3,3.4c-0.5,0.7-1,1.4-1.2,2.3c-0.6,1.8-0.9,3.6-1.3,5.5    c5.7-3.4,11.5-6.9,17.2-10.3C143.8,280.1,140.2,279.9,137.1,280.8"></path>
		<path class="st7" d="M105.3,262.1c-0.2,0-0.7-0.6-0.7-0.6c0.4-0.6,0.8-1.1,1.4-1.9c0.6,0.6,1.2,1,1.2,1.3    C107.2,262,106.1,261.9,105.3,262.1 M108.3,261.1c-0.7-2.3-2.3-2-4.1-1.1c0-0.2,0-0.4,0-0.6c10.2-2.6,20.4-5.1,30.7-7.7l0,0.1    C126.1,254.9,117.3,258,108.3,261.1 M175.5,162.7c1.9,2.3,3.7,4.6,5.5,6.8c-0.1,0.1-0.1,0.1-0.2,0.2c-1.9-2.1-3.9-4.1-5.9-6.3    l-5.7-4.9c-1.8-1.7-3.9-3.6-5.9-5.5c-7.4-7-14.7-14-22.1-21.1c-0.1,1.1,0.1,2.1,0.2,3.2c0.5,6.8-2.3,11.8-7.1,15.7    c1.6,1.3,3.1,2.6,4.7,4c4.6,3.9,9.2,7.9,13.7,12c-1.2-0.8-2.4-1.7-3.6-2.5c-5.6-4-11.2-7.9-16.9-11.9c-1.4,1-3,1.9-4.7,2.8    c6.7,5.1,13.5,10.2,20.2,15.3c6,4.6,12.1,9.2,18.1,13.8c0.2,0.1,0.4,0.3,0.5,0.7c-1.6-0.9-3.2-1.8-4.8-2.7    c-13.2-7.6-26.4-15.2-39.6-22.7c-1.7,1.9-3.1,3.9-4.4,6c0.3,0.2,0.6,0.5,0.9,0.8c-0.4-0.2-0.7-0.4-1.1-0.5    c-0.4,0.6-0.8,1.2-1.2,1.8c-1.2,1.8,0.7,3.7,1.6,5.3c1.2,1.9,1.4,3.8,0.7,5.6c6.3,3.2,12.7,6.3,19,9.5c0.2,0.1,0.3,0.2,0.4,0.5    c-0.4-0.1-0.8-0.2-1.1-0.3c-6.4-2.5-12.9-5.1-19.4-7.6c-0.9,1.4-1.8,2.9-2.5,4.4c6.6,2.9,13.2,5.7,19.8,8.6    c7.3,3.2,14.7,6.4,22,9.6c0.2,0.1,0.3,0.2,0.5,0.4c-5.5-1.6-11-3.2-16.5-4.8c-9.3-2.7-18.6-5.4-27.9-8.1c-1.3,4.2-5.5,3.4-9.1,3.1    c-2-0.1-3.9-0.3-5.6,0.1c2.8,1,5.6,1.9,8.4,2.9c-2.8-0.6-5.6-1.3-8.5-2l-1.6-0.4c-1,0.6-1.9,1.5-2.6,2.9c-1,2.2-1.1,4.3,0.1,6.4    c0.2,0.4,0.5,0.9,0.7,1.3c11.8,2.7,23.6,5.5,35.5,8.2c0.4,0.1,0.9,0.2,1.3,0.5c-2.2-0.3-4.5-0.6-6.7-0.9c-9-1.2-18-2.5-27-3.7    c2,1.7,3.1,3.5,3.3,5.3c5.4,0.9,10.7,1.9,16.1,2.8c11.7,2,23.3,4,35,6.1c0.1,0,0.1,0.1,0.5,0.2c-3.6-0.2-7-0.3-10.4-0.4    c-10.8-0.5-21.5-1-32.3-1.5c-3.7-0.2-7.3-0.4-11-0.5c-0.3,0.4-0.6,0.7-0.9,1.1c-1.8,2.2-2.1,4.1-1.5,6.1c0.6,0,1.1,0.1,1.7,0.1    c1.4,0.1,2.7,0.2,4.1,0.3c0,0.2,0,0.3,0,0.5h-5.5c0.3,0.8,0.7,1.6,1.2,2.5c0.5,0.9,1,1.8,1.4,2.7c0.5,0,1-0.1,1.5-0.1    c12.9-0.8,25.7-1.7,38.6-2.5c4.4-0.3,8.8-0.6,13.3-0.7c-3.1,0.6-6.2,1.2-9.3,1.8c-13.8,2.7-27.6,5.3-41.4,8    c0.6,2.3,0.7,4.8,0.2,7.5c0.8-0.1,1.7-0.3,2.5-0.4c0,0.1,0,0.1,0,0.1c-0.9,0.2-1.8,0.5-2.6,0.7c-1.3,5.8-5.5,7.3-9.9,8.1    c-5.1,1-3.6,2.6-1.5,4.5c0.5,0.4,0.9,0.8,1.4,1.1c3.5-0.9,6.9-1.7,10.4-2.6c0.4-0.1,0.8-0.2,1.1-0.2c1.1,2,0.8,2.9-1.2,3.6    c-1.9,0.7-3.8,1.3-5.7,2c1.9,0.8,4,1.5,6.2,1.8c0.7,0.1,1.4,0.3,2,0.4c9.2-2.9,18.5-5.7,27.8-8.6c5.8-1.8,11.5-3.6,17.3-5.4    c0.6-1.5,2.2-2.9,5.2-3.9c-0.6,0.9-1,1.8-1.3,2.7c0.8-0.2,1.5-0.5,2.3-0.7c0.4-0.1,0.7-0.2,1.2-0.1l-3.8,1.7    c-1.1,4.4,0.4,8.6-0.1,12.8c-0.3,2.5,1.5,4.1,3.1,5.9c1,1.1,1.5,2,1.7,3.1c2.8-1.7,5.5-3.3,8.3-4.9c0.1-0.1,0.3-0.2,0.6,0    c-2,1.6-4,3.2-6,4.8c-1,0.7-1.9,1.5-2.9,2.3c-0.2,0.8-0.5,1.6-1,2.5c-2.8,4.9-4.7,10.2-6.2,15.7c-1.8,6.7-3.9,13.7-11.8,17.7    c-4.3,2.2-8.7,1.3-14.7,2.1l0,0.3c3.7,2.2,5.6,4.8,6.6,7.6l26.1-23.1c1.4-1.3,2.9-2.6,4.5-3.7c-2.1,2.3-4.3,4.6-6.4,6.8    c-7.7,8.2-15.4,16.4-23.2,24.6c0.3,1.9,0.3,3.9,0.4,5.8c0.5-0.5,1-1,1.5-1.4c15.8-15.6,31.6-31.3,47.4-46.9    c0.1-0.1,0.1-0.1,0.3-0.1c-2.1,2.7-4.2,5.4-6.3,8.2c-10.9,14-21.8,28-32.7,41.9c-7.2,9.3-14.4,18.5-21.6,27.8    c-0.5,0.6-0.9,1.2-1.3,1.8c-0.2,0.2-0.4,0.5-0.6,0.7c-0.3,0.4-0.6,0.7-0.8,1.1c-0.7,1-1,2.1,0.3,3.2c0.9,0.8,2,1.2,3.2,1.4    c0.2-0.3,0.5-0.6,0.7-0.8c11.3-13.6,22.6-27.1,33.9-40.6c0.1-0.1,0.2-0.1,0.4-0.1c-2,3-4.1,5.9-6.1,8.9l-17.8,25.8    c2.5-2.3,5-2.1,7.8-0.3c0.3-0.6,1-1,1.2-1.5l1.2-1.8c1.7-2.4,3.5-4.7,5.2-7c0.1,0.1,0.1,0.1,0.2,0.1c-1.7,2.7-3.4,5.3-5.2,8    l-1.8,2.9c0.1,0.1,0.1,0.1,0.2,0.1c1.2,0.9,0.9,0.8,2.3,1.6c0.1-0.1,6.4-8.2,6.8-8.7l4-5.8c9.1-13.2,18-26.1,27-39.1    c0.1,0,0.1,0.1,0.2,0.1c-8.4,15-16.9,30-25.3,45l-2.9,5c-1.3,2.3-2.6,4.6-3.9,6.9c1.2,0.7,2.3,1.1,3.5,1.4    c7.2-11.8,14.4-23.6,21.6-35.4l22.8-37.4c0.2-0.4,0.5-0.7,0.9-1c-1,2.3-2,4.6-3,6.9c-3.4,7.8-6.9,15.5-10.3,23.3l-3.5,7.9    c-5.2,11.7-10.4,23.4-15.6,35.2c1.7,0.8,2.9,2.6,4.2,5.5c0.1,0.1,0.1,0.2,0.2,0.4c4.8-9.8,9.5-19.7,14.3-29.5    c0.2-0.3,0.3-0.6,0.7-0.8c-0.7,1.9-1.4,3.8-2.2,5.8l-11,29.3c0.4,1.3,0.8,2.7,1,4c0.3,1.8,1.2,3.1,2.2,4.5    c2.6-6.3,5.3-12.6,7.9-18.9c0.1,0,0.1,0,0.2,0.1c-2.3,6.8-4.6,13.6-6.9,20.4c0.1,0.2,0.3,0.4,0.4,0.6c0.7,0.9,1.4,1.7,2.2,2.3    c0.7-1.9,1.3-3.7,2-5.6c6-15.9,12-31.7,18-47.6c2.2-6,4.5-11.9,6.9-17.8c-6.7,24.6-13.4,49.1-20.2,74c1.1,0.2,2.1,0.3,3.2,0.4    c1.3-4.2,2.7-8.3,4-12.5c7.3-23.2,14.5-46.5,21.8-69.7c1.1-3.7,2.3-7.4,3.7-11.1c-0.4,2.4-0.8,4.7-1.2,7.1    c-2.7,15.4-5.3,30.8-8,46.3c-2,11.6-4,23.3-6.1,34.9c-0.1,0.5-0.2,1-0.3,1.5c1-1.4,1.6-3.3,1.6-5.2c-0.2-5.9,2.6-9.3,8.1-11.1    c1.5-7.4,3.1-14.8,4.6-22.2c0.1-0.3,0.2-0.6,0.4-0.9c-0.2,2.1-0.4,4.1-0.6,6.1c-0.6,5.4-1.2,10.9-1.9,16.3    c3.7-0.8,5.4-3.2,4.4-6.5c-1.7-5.5-0.6-10.3,3.4-14.7c1.9-2.1,1.9-4.8,2-7.3c0.1-3.2,1-6.3,3.7-8.1c0.7-0.5,1.4-1,1.9-1.5    c0.4-3.1,0.7-6.2,1.1-9.3c0.1-0.9,0.2-1.8,0.4-3c-0.1,3.7-0.2,7.4-0.2,11c2.8-3.5,3.2-7.7,3.9-11.9c0.3-1.6,0.4-3.2,0.9-4.7    c0.3-1.1,0.8-2.3,2-2.6c0.1-0.8,0.1-1.5,0.1-2.3c0.2-3.3,0.4-6.6,0.7-9.9c0.3,4.1,0.6,8.2,0.9,12.3c1.4,0.5,1.1,2,0.9,3.3    c-0.1,0.6,0.2,1.2,0.3,2c4-1,6.2-2.6,3.8-6.1c-1.4-2-0.8-3.1,0.8-4.4c5.7-4.9,11.2-9.8,16.8-14.7c1-0.9,2.2-1.4,3.6-1.8    c11-2.8,21.8-6.1,32.4-9.7c-0.5-0.7-1.1-1.3-1.6-2c0.1-0.1,0.1-0.2,0.2-0.2c0.6,0.7,1.3,1.4,1.9,2c7.9-2.7,15.7-5.5,23.5-8.4    c-3.5-2.7-7.1-5.4-10.6-8.1c-0.2-0.2-0.4-0.3-0.5-0.7c1.6,0.9,3.2,1.8,4.8,2.7c2.9,1.7,5.9,3.4,8.8,5.1c3.6-1.3,7.1-2.6,10.7-3.9    c3.3-1.2,6.3-2.8,9.1-4.7c-1.5-0.7-2.9-1.5-4.4-2.2c-0.2-0.1-0.3-0.2-0.4-0.5c0.4,0.1,0.8,0.2,1.2,0.3c1.5,0.6,3,1.2,4.5,1.8    c1.8-1.2,3.4-2.5,5.1-3.9c-2.5-1.1-5-2.2-7.5-3.2c-7.3-3.2-14.7-6.4-22-9.6c-0.2-0.1-0.4-0.2-0.5-0.4l16.5,4.8    c5.8,1.7,11.6,3.4,17.4,5c1.4-1.2,2.7-2.4,4.1-3.6c4-3.5,8-7.1,11.8-10.8c-7.6-1.7-15.1-3.5-22.7-5.2c-0.4-0.1-0.8-0.2-1.3-0.5    c2.2,0.3,4.5,0.6,6.7,0.9c6.5,0.9,12.9,1.8,19.4,2.7c1.5-1.4,2.9-2.8,4.4-4.3l-16.2-2.8c-11.6-2-23.3-4-34.9-6.1    c-0.1,0-0.2-0.1-0.5-0.3c3.6,0.2,7,0.3,10.4,0.5c10.8,0.5,21.5,1,32.3,1.5c5.1,0.2,10.2,0.5,15.4,0.7c1.9-1.9,3.7-3.9,5.6-5.8    c-5.6,0.1-11.1,0.1-16.7,0.1c-7.6,0.1-15.2,0.2-22.8,0.2c-0.5,0-0.9,0-1.4-0.2c14.8-1.4,29.5-2.9,44.3-4.4    c0.5-0.9,0.8-1.8,1.1-2.8c0.2-0.6,0.4-1.2,0.5-1.8c-5.7,0.4-11.4,0.7-17,1.1c-12.9,0.8-25.7,1.7-38.5,2.5    c-4.4,0.3-8.8,0.6-13.3,0.7c3.1-0.6,6.2-1.2,9.3-1.8c17.9-3.5,35.9-7,53.8-10.4c2.8-0.6,5.7-1.1,8.6-1.7c0.7-2.3,1.4-4.7,2.1-7    c-8.6,1.3-17.2,2.7-25.8,4.1c0-0.1,0-0.1,0-0.2c5-1.2,9.9-2.5,14.8-3.7c3.9-1,7.9-2,11.8-3c0.7-2.2,1.5-3.5,4.8-3.1    c3.9,0.5,6.7-0.1,4.8-4.9c-0.1-0.2-0.2-0.4-0.2-0.6c-2.6,0.5-5.1,1.1-7.7,1.6c-1.6,0.3-3.1,0.7-4.7,0.8c3.7-1.1,7.3-2.1,11-3.2    c0.3-0.1,0.7-0.2,1-0.3c-0.4-1.1-0.7-2.3-0.9-3.5c-2.3,0.6-4.6,1.1-6.8,1.7c-8.5,2.1-17,4.3-25.4,6.4c-0.4,0.1-0.8,0.2-1.2,0.2    l-0.8,0.2c-10.2,2.6-20.4,5.1-30.7,7.7l0-0.1c8.8-3.1,17.6-6.1,26.6-9.3l6.1-2.1c10.9-3.8,21.8-7.6,32.7-11.4    c0.2-0.5,0.4-1,0.6-1.5c0.4-0.8,0.5-1.7,0.4-2.4c-2.9,0.9-5.9,1.7-8.8,2.7c-18.4,5.7-36.8,11.4-55.1,17.1    c-7.9,2.4-15.7,4.9-23.5,7.3c-0.3,0.1-0.7,0.2-1.2,0.1c25.6-11.7,51.3-23.5,76.9-35.2l2.2-0.7c-0.6-0.9-1-2-1.2-3.2    c-0.2-1-0.6-2-1.1-2.8c-11.3,4.7-22.8,9.5-34.2,14.2c0-0.1-0.1-0.1-0.1-0.2c0.6-0.4,1.3-0.7,2-1c9.9-5.2,19.9-10.5,29.9-15.7    c-1.8-1.5-4.1-2.6-6.3-3.8c0.1-0.1,0.1-0.1,0.2-0.2l-6.7,3.2c0,0-0.1-0.1-0.1-0.2c4-2.3,8-4.6,12-6.9c0.7-0.4,1.5-0.8,2.2-1.2    c-1.3-0.6-2.6-1.3-4-1.9c-11.8,6.2-23.6,12.4-35.4,18.6c-7.2,3.8-14.4,7.6-21.6,11.4c-0.5,0.3-1,0.5-1.6,0.5    c1.7-1.1,3.4-2.2,5.2-3.3c15.1-9.8,30.3-19.6,45.4-29.4c-0.4,0-0.8-0.1-1.2-0.1c-1.7,0-3.1-0.4-4.4-1c-5.7,3.4-11.4,6.8-17,10.2    c-16.7,10-33.5,20.1-50.2,30.1c-0.2,0.1-0.3,0.2-0.5,0c2-1.6,4-3.2,6-4.7c18-14.2,36-28.4,54-42.6c-0.3-0.3-0.6-0.7-0.9-1    c-1.3-1.3-2.6-2.5-4-3.5c-2.9,2.1-5.8,4.3-8.7,6.4c-3.6,2.6-7.2,5.3-10.8,7.9l-0.2-0.3c5.9-5.2,11.7-10.3,17.5-15.5    c-3.8-2.2-8-3.3-12.7-3.3c-10.1,8.9-20.2,17.9-30.3,26.8c-1.4,1.3-2.9,2.6-4.5,3.8c2.1-2.3,4.2-4.6,6.4-6.8    c5-5.3,9.9-10.5,14.8-15.7c-1.9,0.3-3.9-0.1-5.8-1c-11.7,11.6-23.4,23.1-35.1,34.7c-0.1,0.1-0.1,0.1-0.3,0.1    c2.1-2.7,4.2-5.5,6.3-8.2c6.8-8.8,13.7-17.6,20.5-26.4c-2.7,0.8-5.4,0.3-8.1-1.2c-3.4-1.9-6.7-3.4-10.7-3.8c-2.8,4-5.5,8-8.3,12    c-0.1,0-0.1-0.1-0.2-0.1c2.2-4,4.5-8,6.7-11.9c-1,0-1.9,0.1-3,0.2c-1.3,0.2-2.5,0.2-3.6,0.1c-5.3,8.7-10.6,17.4-15.9,26.1    c-0.2,0.4-0.5,0.7-0.9,1c1-2.3,2-4.6,3-6.9c3.2-7.2,6.3-14.4,9.5-21.5c-3.3-1.9-5.1-5.7-4.8-10.6c0.1-2.5-1-3.7-3.9-4.1    c-1.6-0.2-3.1-0.5-4.3-1l-0.2,0.5c-2.2,6-4.5,11.9-6.9,17.8c1.8-6.5,3.5-12.9,5.3-19.3c-1.3-1-2.1-2.4-2.2-4.6    c-0.1-1.1-0.6-1.6-1.3-1.9c-3.5,11.2-7,22.4-10.5,33.5c-1.1,3.7-2.3,7.5-3.6,11.1c0.4-2.4,0.8-4.7,1.2-7.1    c2.1-12.3,4.2-24.7,6.4-37.1c-2.7-0.2-5.1-1.2-7.9-2c-3.7-1-6.8-2.8-10-4.5c-0.3,2.6-0.6,5.3-0.9,7.9c-0.7,5.8-1.3,11.5-2,17.3    c-0.1,0.9-0.3,1.8-0.4,3c0.2-10.1,0.4-19.9,0.6-29.7c-1.6-0.8-3.2-1.5-4.9-2c-0.2,3.5-0.4,6.9-0.6,10.4    c-0.6,10.6-1.1,21.1-1.7,31.7c-0.2,3.3-0.4,6.6-0.7,9.9c-1.4-18.7-2.8-37.4-4.3-56.1c-2.3-1.9-4.9-3.3-7.5-4.6l0.5,11.5    c0,0.2,0,0.4-0.1,0.7c-0.6-4.3-1.2-8.6-1.8-12.9c-2-0.9-4-1.9-6-2.9c-2.3-1.2-4.3-3-6.2-4.9c1.1,8,2.2,16,3.3,24    c1.1,8.2,2.2,16.4,3.3,24.6c0,0.2,0,0.3-0.1,0.5c-2.8-12.1-5.5-24.1-8.3-36.2c-1.1-5-2.3-9.9-3.4-14.9c-1.3,2.1-2.3,4.2-2.5,6.9    c0,0.4-0.1,0.7-0.2,1c1.8,9,3.5,18.1,5.2,27.1c2.3,12.1,4.7,24.3,7.1,36.5c0.1,0.4,0.1,0.8,0,1.2c-0.2-0.5-0.4-1-0.5-1.6    c-6.6-19.8-13.2-39.5-19.8-59.2c-1.3,0-2.7-0.1-3.6,0.8c-0.9,0.9-1.9,1.6-2.9,2.1c1.3,4.3,2.6,8.7,3.9,13c0.1,0.2,0.1,0.3-0.1,0.5    c-1.3-3.3-2.7-6.7-4-10c-0.4-1-0.8-1.9-1.1-2.9c-3.2,1.2-6.8,1.1-10.5,1c-0.3,0-0.6,0-0.9,0c3.6,9.1,7.2,18.2,10.9,27.3    c1.7,4.2,3.4,8.4,5,12.6c0.1,0.4,0.2,0.7,0.2,1.1c-6.7-13.1-13.4-26.3-20.2-39.4c-1.2,1-2.5,1.7-3.8,2.1    c5.4,11.5,10.7,22.9,16.1,34.4c3.9,8.3,7.8,16.6,11.6,24.9c0.1,0.3,0.3,0.6,0.2,1c-2.4-3.8-4.8-7.5-7.2-11.3    c-10.1-15.9-20.3-31.8-30.4-47.8c-2.1,0.8-4,2.3-5.9,3.5c3.3,5.6,6.6,11.1,9.9,16.7c0.1,0.2,0.2,0.5,0.2,0.8    c-1.5-2.1-3.1-4.2-4.6-6.3c-2.4-3.4-4.8-6.7-7.2-10.1c-3,1.8-5.9,3.5-9.6,3.2c-0.5,0-1,0-1.5,0.1c4.4,6.1,8.8,12.3,13.3,18.4    c5.6,7.9,11.3,15.7,16.8,23.7c-11.4-13.1-22.7-26.1-34.1-39.2c-0.1,0.1-0.1,0.3-0.2,0.4c-0.6,2.1-0.4,4.8,2.8,6    c0.6,0.2,1.1,0.7,1.7,1.1c0.1,0.1,0.1,2.1,0.1,4.6c9.6,11.9,19.2,23.7,28.8,35.6L175.5,162.7z"></path>
		<path class="st7" d="M144.1,276.3c-0.5,0.3-1,0.7-1.5,1c0.1,0,0.2,0,0.2,0.1c3,0.7,6-0.8,6.9-3.6c1.7-5.3,2.6-10.7,0.3-16.3    c-0.4-0.9-0.6-1.8-0.5-2.6c-12.8,5.9-25.7,11.7-38.5,17.6c3.6,4.4,8.3,7.7,14.1,10c3,1.2,4.7,0.7,6.1-1.6c2.9-4.8,8-8.4,9.4-14.1    c0.3-1.2,1.7-2,3.9-2.6c-1.2,2.8-2,5.2-3.3,7.4c-1.3,2.3-1.5,4.6,0.9,5.5c0.2-0.1,0.3-0.2,0.5-0.3    C143,276.6,143.5,276.4,144.1,276.3"></path>
		<path class="st7" d="M183.3,396c0.7,0.3,1.5,0.5,2.2,0.7C184.8,395.9,184.1,395.9,183.3,396"></path>
		<path class="st7" d="M118.1,346.8c-0.8,0.6-1.4,1.4-1.8,2.2c1-1,2-1.9,3-2.9C118.8,346.3,118.4,346.5,118.1,346.8"></path>
		<path class="st7" d="M394.5,153.9c2.6,1.5,5.3,1,8,0.8c1.3-0.7,2.7-1.4,4-2.1c-0.3-0.5-0.8-0.9-1.4-0.9c-2.4-0.2-4.5-0.8-6.6-1.7    c-2.3,1.1-4.5,2.2-6.8,3.3C392.7,153.1,393.6,153.4,394.5,153.9"></path>
		<path class="st11" d="M254.6,205.8c1,0.2,1.7,0.3,2.5,0.5c0.3,1,1,0.6,1.7,0.2c1.3-0.7,2.5-0.1,2.7,1.4c0.2,1,0.9,1.1,1.7,0.7    c0.9-0.5,1.6-0.1,2.3,0.5c0.2,0.2,0.3,0.4,0.3,0.6c0,1.8,0,3.6,0,5.4c0,1.1,0.1,2.2,0,3.3c0,0.3-0.3,0.7-0.5,1    c-1,1.9-1.8,3.8-3.6,5.1c-0.8,0.6-1.4,1.5-2.3,2.1c-0.6,0.4-1.5,0.6-2.3,0.7c-0.1,0-0.4-0.4-0.5-0.7c-0.3-0.8-0.9-0.8-1.5-0.5    c-0.8,0.4-1.6,0.9-2.4,1.4c-0.3,0.2-0.5,0.5-0.7,0.8c-0.1,0-0.2-0.1-0.3-0.2c-0.3-1.8-1.9-1.4-3-1.9c-0.6-0.2-1.2-0.3-1.8-0.6    c-1.3-0.7-2.5-1.5-3.8-2.4c-0.1,0.1-0.3,0.2-0.3,0.3c-0.2,1.7-1.2,2-2.8,2.1c-1.4,0.1-2.7,1-3.9,1.5c-0.7-0.1-1.3-0.2-1.9-0.2    c-1.8,0.1-3.4,0-4.4-1.9c-0.5-0.9-1.5-1.5-2.4-2.1c-0.2-0.2-0.7,0-1,0.1c-1.1,0.5-2.2,1.1-3.2,1.7c-1.2,0.6-2.1,0.5-2.9-0.6    c-1.2-1.5-2.3-3.2-2.4-5.2c0-0.7,0.5-1.4,0.9-2c1.3-1.7,2.1-3.4,1.6-5.6c-0.1-0.4,0.2-1.2,0.6-1.5c0.7-0.7,1.7-1.2,2.5-1.9    c0.3-0.2,0.6-0.5,0.7-0.8c0.2-1.1,1.1-1.1,1.9-1.2c0.5-0.1,1,0,1.5-0.1c0.9-0.2,1.7-0.5,2.5,0.3c0.3,0.3,1,0.2,1.5,0.2    c0.6,0.1,1.1,0.1,1.7,0.1c0.2,0,0.4,0,0.6-0.1c1-0.7,1.9-1.4,2.9-2c0.3-0.2,0.9,0.1,1.4,0.2c0.4,0.1,0.8,0.3,1.1,0.3    c0.2-0.1,0.3-0.6,0.4-0.9c0.1-0.5,0-1.1,0.1-1.6c0.1-0.5,0.2-1.2,0.5-1.3c0.7-0.1,1.4-0.4,2,0.6c0.9,1.6,1.9,1.8,3.5,0.9    c0.1-0.1,0.3-0.1,0.3-0.2c0.3-1.7,1.9-2.5,2.7-3.9c0.2-0.4,0.3-0.9,0.3-1c0.7,0.1,1.3,0.1,2,0.2c0.4,0.1,0.9,0.2,1.2,0.5    c0.5,0.5,0.8,1.1,1.3,1.8c-0.5,2.3-1,4.9-1.4,7.4c-0.1,0.2,0.3,0.4,0.4,0.6C253.2,207.1,254.8,207.4,254.6,205.8"></path>
	</g>
</g>
</svg>
